<svg version="1.1" id="Layer_1" xmlns="http://www.w3.org/2000/svg" xmlns:xlink="http://www.w3.org/1999/xlink" x="0px" y="0px"
	 width="100%" viewBox="0 0 336 316" enable-background="new 0 0 336 316" xml:space="preserve">
<path fill="none" opacity="1.000000" stroke="#000000" stroke-linecap="round" stroke-linejoin="round" stroke-width="8.000000"
	d="
M233.000000,228.000000 
	C237.592804,225.174866 242.660522,226.741241 247.502472,226.570084 
	C255.011719,226.304657 255.500000,226.018631 255.500000,218.500000 
	C255.500000,163.833328 255.500000,109.166664 255.500000,54.500000 
	C255.500000,46.981361 255.018631,46.500000 247.500000,46.500000 
	C206.000000,46.500000 164.500000,46.498718 123.000000,46.501259 
	C116.081924,46.501682 116.000000,46.591282 116.000000,53.500000 
	C116.000000,109.000000 115.999199,164.500000 116.001122,220.000000 
	C116.001335,226.251587 116.223755,226.493805 122.500000,226.495514 
	C157.000000,226.504883 191.500000,226.504074 226.000000,226.490631 
	C228.229202,226.489761 230.447372,226.425385 232.500000,227.500000 
"/>
<path fill="none" opacity="1.000000" stroke="#000000" stroke-linecap="round" stroke-linejoin="round" stroke-width="8.000000"
	d="
M92.500000,90.500000 
	C87.333336,90.500000 82.165428,90.569389 77.000404,90.477165 
	C73.147049,90.408371 71.324547,92.150795 71.494637,96.000237 
	C71.531387,96.831947 71.500000,97.666664 71.500000,98.500000 
	C71.500000,153.166672 71.500000,207.833328 71.500000,262.500000 
	C71.500000,270.226990 71.773018,270.500000 79.500000,270.500000 
	C121.000000,270.500000 162.500000,270.501312 204.000000,270.498718 
	C211.000000,270.498291 211.000000,270.490540 211.000000,263.500000 
	C211.000000,259.000000 211.000000,254.500000 211.000000,250.000000 
"/>
<path fill="none" opacity="1.000000" stroke="#000000" stroke-linecap="round" stroke-linejoin="round" stroke-width="9.000000"
	d="
M114.500000,68.500000 
	C109.333336,68.500000 104.165207,68.574684 99.000504,68.474159 
	C95.460838,68.405258 93.838852,69.695404 93.937256,73.501625 
	C94.143936,81.496277 94.000000,89.500000 94.000000,97.500000 
	C94.000000,145.666672 93.999084,193.833328 94.001129,242.000000 
	C94.001389,248.251587 94.223755,248.493790 100.500000,248.495514 
	C134.833328,248.504913 169.166672,248.500000 203.500000,248.500000 
	C211.500000,248.500000 219.502380,248.384094 227.498993,248.548645 
	C231.532883,248.631668 233.332993,247.273575 233.068512,242.995758 
	C232.770813,238.180847 233.000000,233.333328 233.000000,228.500000 
"/>
<path fill="none" opacity="1.000000" stroke="#000000" stroke-linecap="round" stroke-linejoin="round" stroke-width="8.000000"
	d="
M221.500000,136.500000 
	C221.500000,157.166672 221.500000,177.833328 221.500000,198.500000 
"/>
<path fill="none" opacity="1.000000" stroke="#000000" stroke-linecap="round" stroke-linejoin="round" stroke-width="8.000000"
	d="
M174.500000,142.500000 
	C174.500000,161.166672 174.500000,179.833328 174.500000,198.500000 
"/>
<path fill="none" opacity="1.000000" stroke="#000000" stroke-linecap="round" stroke-linejoin="round" stroke-width="9.000000"
	d="
M234.500000,92.750000 
	C224.666672,92.833328 214.833450,92.937988 204.999954,92.992683 
	C198.166840,93.030685 191.333328,93.000000 184.500000,93.000000 
"/>
<path fill="none" opacity="1.000000" stroke="#000000" stroke-linecap="round" stroke-linejoin="round" stroke-width="8.000000"
	d="
M234.000000,74.000000 
	C224.517349,72.844673 214.999191,73.672997 205.499344,73.550423 
	C198.502670,73.460144 191.500000,73.833336 184.500000,74.000000 
"/>
<path fill="none" opacity="1.000000" stroke="#000000" stroke-linecap="round" stroke-linejoin="round" stroke-width="8.000000"
	d="
M175.000000,84.000000 
	C177.913620,92.276360 167.737015,103.398758 159.484314,105.436493 
	C151.936920,107.300064 144.544312,106.497093 139.101562,100.409195 
	C135.284012,96.139137 130.837326,91.928802 130.493927,85.500328 
	C129.855743,73.553314 139.602997,60.953308 152.505737,61.253048 
	C161.350815,61.458530 167.637787,64.578453 172.493286,71.504707 
	C174.924026,74.972122 176.320618,78.698418 175.000000,83.000000 
"/>
<path fill="none" opacity="1.000000" stroke="#000000" stroke-linecap="round" stroke-linejoin="round" stroke-width="9.000000"
	d="
M198.500000,154.500000 
	C197.452316,163.316711 198.191788,172.167114 198.021652,181.000412 
	C197.907745,186.914902 198.000000,192.833328 198.000000,198.750000 
"/>
<path fill="none" opacity="1.000000" stroke="#000000" stroke-linecap="round" stroke-linejoin="round" stroke-width="8.000000"
	d="
M151.000000,166.000000 
	C152.127411,176.818558 151.190292,187.668869 151.500000,198.500000 
"/>
<path fill="none" opacity="1.000000" stroke="#000000" stroke-linecap="round" stroke-linejoin="round" stroke-width="8.000000"
	d="
M172.000000,124.000000 
	C165.675125,127.286377 161.071014,132.754761 155.523804,137.030869 
	C151.402954,140.207443 147.466949,143.628296 143.522858,147.026535 
	C142.516663,147.893463 141.486938,147.254944 140.500000,147.500000 
"/>
<path fill="none" opacity="1.000000" stroke="#000000" stroke-linecap="round" stroke-linejoin="round" stroke-width="8.000000"
	d="
M171.750000,122.500000 
	C172.424911,125.880043 175.638382,124.414780 177.558228,125.384743 
	C184.409363,128.846069 191.518127,131.794327 198.485092,135.032089 
	C199.921219,135.699493 201.272812,136.012909 202.482635,134.979675 
	C209.850769,128.687088 217.166672,122.333344 224.500000,116.000008 
"/>
<path fill="none" opacity="1.000000" stroke="#000000" stroke-linecap="round" stroke-linejoin="round" stroke-width="9.000000"
	d="
M136.500000,199.750000 
	C138.453995,200.937363 140.509232,199.901031 142.501129,199.936844 
	C150.831772,200.086609 159.166672,200.000000 167.500000,200.000000 
	C175.166672,200.000000 182.873001,200.487091 190.489136,199.866699 
	C198.537552,199.211075 206.532196,200.825516 214.490097,199.913574 
	C221.191101,199.145676 227.843933,200.681213 234.500000,199.750000 
"/>
<path fill="none" opacity="1.000000" stroke="#000000" stroke-linecap="round" stroke-linejoin="round" stroke-width="8.000000"
	d="
M138.000000,96.499992 
	C142.500000,92.666656 146.999680,88.832954 151.500244,85.000275 
	C152.540909,84.114037 153.259201,82.689461 155.000656,82.996239 
	C161.474289,84.136658 168.003433,83.199440 174.500000,83.500000 
"/>
<path fill="none" opacity="1.000000" stroke="#000000" stroke-linecap="round" stroke-linejoin="round" stroke-width="8.000000"
	d="
M153.500000,62.500000 
	C153.766983,69.164162 152.914627,75.856300 154.000000,82.500000 
"/>
<path fill="none" opacity="1.000000" stroke="#000000" stroke-linecap="round" stroke-linejoin="round" stroke-width="8.000000"
	d="
M217.500000,110.500000 
	C226.141983,110.763573 230.620255,116.410088 229.000000,125.000000 
"/>
</svg>