<svg version="1.1" id="Layer_1" xmlns="http://www.w3.org/2000/svg" xmlns:xlink="http://www.w3.org/1999/xlink" x="0px" y="0px"
	 width="100%" viewBox="0 0 384 288" enable-background="new 0 0 384 288" xml:space="preserve">
<path fill="#000000" opacity="1.000000" stroke="none" 
	d="
M104.683319,125.016304 
	C108.673027,118.848938 114.903419,119.876610 121.842323,119.447067 
	C109.503983,109.700500 103.398750,97.797516 103.992744,83.314301 
	C104.450180,72.160507 109.025627,62.430298 117.387634,54.639355 
	C132.966324,40.124565 156.821213,39.960938 173.260956,54.930763 
	C182.717209,63.541489 187.232239,74.697388 186.559433,87.604454 
	C185.889420,100.458168 179.434738,110.452003 169.781281,118.854614 
	C172.328568,120.154060 174.520264,119.540504 176.615768,119.725731 
	C183.253372,120.312431 187.202316,124.427773 187.357574,131.118469 
	C187.438690,134.614349 187.394821,138.113358 187.391769,141.610931 
	C187.381546,153.351273 185.801697,155.332260 174.298218,157.845001 
	C174.298218,165.232513 174.298218,172.666656 174.298218,180.392639 
	C175.086334,180.581543 175.845566,180.876968 176.621918,180.932343 
	C186.273529,181.620834 190.023712,185.496536 190.161438,195.062256 
	C190.211777,198.558899 190.238235,202.060455 190.115616,205.554153 
	C189.822922,213.893951 185.804001,217.895462 177.440948,218.351028 
	C176.470978,218.403854 175.507751,218.580276 174.248367,218.735519 
	C174.248367,224.517151 174.297241,230.121765 174.237198,235.725220 
	C174.141129,244.692688 169.663452,249.147873 160.607590,249.169571 
	C141.120941,249.216263 121.633987,249.225891 102.147400,249.169052 
	C93.539444,249.143951 89.344620,244.956299 89.063499,236.279373 
	C88.944893,232.618515 88.955864,228.951050 89.001244,225.287750 
	C89.112640,216.298096 93.042191,212.215469 101.968346,211.697357 
	C102.932304,211.641403 103.889198,211.463577 105.199890,211.298019 
	C104.926743,203.519287 104.431557,195.952484 105.408852,188.644424 
	C103.832504,186.934158 102.058434,187.503235 100.463913,187.416870 
	C93.662811,187.048569 89.713493,183.411850 89.157578,176.560089 
	C88.875458,173.082977 89.012398,169.569839 89.004112,166.072876 
	C88.977768,154.952927 91.698601,151.775513 102.625931,150.275040 
	C103.707703,142.026672 100.802628,133.424606 104.683319,125.016304 
M176.405075,99.879982 
	C178.984940,95.072571 180.026993,89.937439 179.771774,84.500587 
	C179.091766,70.014526 172.193161,59.593475 159.039062,53.618019 
	C146.088699,47.735115 133.858109,49.991714 123.108459,58.751331 
	C111.581772,68.144127 108.672890,80.890686 112.149422,94.809509 
	C115.560638,108.466805 127.509254,117.968460 141.614929,119.590134 
	C155.689331,121.208214 168.768036,113.974739 176.405075,99.879982 
M125.499931,242.655304 
	C137.165100,242.651077 148.830795,242.581146 160.495163,242.675385 
	C165.074722,242.712387 167.344788,240.507355 167.538223,236.123871 
	C167.699677,232.464798 167.655014,228.792130 167.576767,225.128143 
	C167.482910,220.733398 165.320953,218.344986 160.748932,218.349411 
	C141.251526,218.368286 121.754074,218.368683 102.256653,218.349014 
	C97.697319,218.344421 95.514427,220.692627 95.415512,225.105392 
	C95.337112,228.603226 95.270615,232.108047 95.400879,235.602219 
	C95.585938,240.565842 97.557472,242.546982 102.503174,242.618607 
	C109.834061,242.724777 117.167549,242.651596 125.499931,242.655304 
M118.766403,150.659592 
	C137.056808,150.656708 155.347290,150.680450 173.637589,150.634949 
	C179.231796,150.621033 180.797974,149.067505 180.931259,143.586075 
	C181.020142,139.930222 180.910233,136.269928 180.960358,132.612595 
	C181.017517,128.443390 178.834076,126.431938 174.848068,126.422928 
	C155.061584,126.378242 135.274841,126.376534 115.488388,126.427010 
	C111.443451,126.437332 109.423691,128.738632 109.347786,132.724808 
	C109.287636,135.882996 109.299477,139.043137 109.320755,142.202148 
	C109.367622,149.159256 110.726929,150.495743 118.766403,150.659592 
M167.463257,187.416534 
	C151.634293,187.420120 135.805054,187.368668 119.976517,187.453506 
	C113.330940,187.489120 112.055183,188.873383 111.982582,195.364319 
	C111.950897,198.196457 111.980919,201.029343 111.991623,203.861862 
	C112.017662,210.750198 112.903236,211.690247 119.764198,211.700485 
	C137.592575,211.727097 155.421036,211.710632 173.249466,211.704865 
	C182.771011,211.701782 182.974686,211.488892 182.996216,201.808243 
	C183.028168,187.429810 183.028168,187.429810 167.463257,187.416534 
M145.499313,180.974136 
	C147.832336,180.973145 150.165863,181.003586 152.498306,180.966019 
	C166.221375,180.744965 167.981949,184.036728 167.609299,165.533371 
	C167.469711,158.602951 166.060501,157.218918 158.912064,157.205017 
	C142.914459,157.173920 126.916695,157.210541 110.919144,157.167175 
	C95.095734,157.124268 95.129547,155.877533 95.356598,173.152664 
	C95.437813,179.330978 96.940659,180.919113 103.005775,180.944153 
	C116.836876,181.001251 130.668335,180.970245 145.499313,180.974136 
z"/>
<path fill="#000000" opacity="1.000000" stroke="none" 
	d="
M212.739563,174.622406 
	C212.739594,168.844208 212.739594,163.518509 212.739594,158.099564 
	C211.524887,156.703079 209.679184,157.330429 208.127274,156.921341 
	C203.002335,155.570435 199.821518,151.883041 199.642960,146.552277 
	C199.470078,141.391205 199.432938,136.221268 199.502197,131.057465 
	C199.590042,124.506630 203.758881,120.186775 210.402069,119.765320 
	C213.344330,119.578659 216.308258,119.733826 220.520798,119.733826 
	C208.046341,108.959579 201.356476,96.627686 202.890350,80.983353 
	C203.902222,70.663170 208.375031,61.750675 216.050949,54.758240 
	C232.512329,39.762604 257.039307,40.213215 272.641144,55.582420 
	C290.739838,73.411247 289.403748,94.641876 268.402222,119.490677 
	C269.898743,119.574753 271.180145,119.646339 272.461487,119.718788 
	C279.634949,120.124367 284.062988,124.654076 284.283539,131.918396 
	C284.374481,134.915085 284.295197,137.916962 284.294403,140.916473 
	C284.293640,143.898239 284.294220,146.880005 284.294220,150.032547 
	C285.207001,151.046951 286.647888,150.531616 287.913605,150.738678 
	C293.583252,151.666245 297.076721,154.781631 297.587677,160.558914 
	C298.084564,166.177246 298.114349,171.892502 297.712616,177.519730 
	C297.272156,183.688919 293.048676,187.326599 286.621613,187.313019 
	C282.580719,187.304474 281.171265,188.070465 281.774414,192.701981 
	C282.558075,198.719574 281.965881,204.916321 281.965881,210.990524 
	C297.343536,214.361481 297.975861,215.165192 297.973846,231.332581 
	C297.973572,233.664093 298.047424,236.012695 297.805267,238.323868 
	C297.116394,244.897675 292.876740,249.081299 286.252991,249.125565 
	C265.757233,249.262543 245.259506,249.255096 224.763626,249.129120 
	C217.667831,249.085510 213.041092,244.284744 212.827682,237.046494 
	C212.651535,231.072632 212.791687,225.089432 212.791687,218.831421 
	C212.124069,218.689148 211.351166,218.411560 210.566864,218.374435 
	C200.738846,217.909271 196.991089,214.006775 196.865402,204.019974 
	C196.827667,201.020844 196.808044,198.020493 196.847000,195.021576 
	C196.969315,185.603928 200.632324,181.700607 209.953064,180.968903 
	C210.762985,180.905319 211.562393,180.707916 212.302963,180.583389 
	C213.431610,178.703033 212.488602,176.844223 212.739563,174.622406 
M229.937653,116.677002 
	C237.045624,119.583504 244.286423,120.501144 251.888153,118.740463 
	C268.833557,114.815636 280.805298,98.261261 278.512604,81.673210 
	C275.969147,63.270916 260.600677,49.738625 242.976898,50.383232 
	C227.597412,50.945747 213.856033,62.330402 210.387344,77.383499 
	C206.722519,93.287788 214.064117,108.491074 229.937653,116.677002 
M252.500046,218.350159 
	C243.856415,218.353287 235.212143,218.421097 226.569427,218.333923 
	C221.803757,218.285873 219.457733,220.523621 219.402847,225.225159 
	C219.360153,228.881516 219.284622,232.541199 219.389801,236.194611 
	C219.509476,240.351883 221.612869,242.646362 225.938492,242.644516 
	C245.552872,242.636185 265.167236,242.641495 284.781616,242.642502 
	C289.049255,242.642715 291.269531,240.343689 291.517059,236.251709 
	C291.727509,232.773026 291.688446,229.270569 291.586670,225.783661 
	C291.424225,220.220245 289.583344,218.418442 283.918884,218.379715 
	C273.779694,218.310410 263.639709,218.354584 252.500046,218.350159 
M263.445496,126.375877 
	C246.824371,126.377861 230.203217,126.389267 213.582108,126.374771 
	C209.748413,126.371422 206.362045,127.187027 206.118042,131.779114 
	C205.871643,136.416214 205.971161,141.084473 206.171829,145.728149 
	C206.307861,148.876343 208.359329,150.581650 211.428711,150.590790 
	C231.540039,150.650574 251.651642,150.649124 271.763062,150.607315 
	C275.334137,150.599884 277.251465,148.514450 277.583527,145.048187 
	C277.757233,143.234955 277.669891,141.395096 277.671326,139.567230 
	C277.681732,126.354019 277.679352,126.354019 263.445496,126.375877 
M206.532562,211.179932 
	C209.118851,212.127579 211.807159,211.678192 214.445786,211.684753 
	C232.247971,211.729004 250.050385,211.738373 267.852570,211.694244 
	C273.765747,211.679596 274.877808,210.537796 274.986511,204.722031 
	C275.054901,201.063095 274.972198,197.401566 275.018768,193.741959 
	C275.071747,189.575470 272.808533,187.492691 268.896881,187.476898 
	C249.265030,187.397552 229.632614,187.435394 210.000488,187.472763 
	C207.748505,187.477051 204.957031,188.073822 204.727509,190.380051 
	C204.052155,197.166031 202.226974,204.128220 206.532562,211.179932 
M260.500000,180.967941 
	C265.831757,180.968948 271.164581,181.039749 276.495056,180.957260 
	C290.021942,180.747925 291.998932,184.084152 291.622955,165.508530 
	C291.485962,158.738358 290.077301,157.219086 283.424957,157.206757 
	C267.263184,157.176773 251.101196,157.236725 234.939545,157.181488 
	C218.841141,157.126465 219.192978,156.007019 219.378967,173.120926 
	C219.448029,179.474930 220.946381,180.914932 227.509583,180.942261 
	C238.172897,180.986679 248.836517,180.962708 260.500000,180.967941 
z"/>
<path fill="#000000" opacity="1.000000" stroke="none" 
	d="
M140.699722,65.546951 
	C142.495026,64.438972 142.587784,62.936565 142.764511,61.424702 
	C142.940155,59.922253 143.857147,58.988274 145.382736,58.881706 
	C147.094330,58.762150 148.576279,59.638111 148.728897,61.241272 
	C149.020782,64.307220 151.020096,65.761520 153.182434,67.418152 
	C155.639542,69.300629 157.058044,71.961479 157.233948,75.147636 
	C157.350616,77.260597 157.120697,79.400208 154.647476,79.897903 
	C152.075348,80.415497 151.145599,78.502068 150.744949,76.383034 
	C150.076828,72.849281 148.020279,70.995552 144.445816,71.622299 
	C142.190231,72.017792 140.624695,73.643822 140.284866,76.065544 
	C139.943695,78.496941 141.503799,79.760155 143.434723,80.597130 
	C146.645309,81.988800 149.906189,83.241013 152.572876,85.634727 
	C159.285568,91.660248 158.834564,99.112923 151.233078,103.781601 
	C149.317764,104.957954 148.296143,106.177742 148.074402,108.394608 
	C147.897110,110.167122 146.863571,111.606995 144.838348,111.558273 
	C142.856522,111.510590 141.774170,110.195282 141.756210,108.309631 
	C141.735291,106.115204 140.514267,105.056282 138.748962,104.186134 
	C135.262131,102.467422 133.901627,99.375511 133.389313,95.712700 
	C133.089447,93.568771 133.084030,91.495987 135.528122,90.804794 
	C138.375443,89.999565 139.199554,92.090706 139.924057,94.323822 
	C141.348160,98.713303 144.061752,99.967453 147.723770,98.044563 
	C150.736115,96.462807 151.402878,94.305702 149.041550,91.635376 
	C147.108063,89.448868 144.429001,88.418663 141.859619,87.224655 
	C137.836685,85.355179 134.078949,83.229340 133.656128,78.101814 
	C133.194504,72.503853 135.554871,68.454788 140.699722,65.546951 
z"/>
<path fill="#000000" opacity="1.000000" stroke="none" 
	d="
M238.368927,66.206650 
	C240.447403,65.184402 240.687866,63.544945 241.013107,61.877644 
	C241.364349,60.077076 242.431580,58.852177 244.410324,58.849552 
	C246.156265,58.847237 247.355042,59.908119 247.551147,61.504326 
	C247.894135,64.296204 249.616776,65.780037 251.748856,67.253372 
	C254.664658,69.268280 255.923065,72.361641 256.177582,75.817810 
	C256.326904,77.845940 255.451187,79.548775 253.375214,79.955765 
	C251.471085,80.329071 250.308533,79.072769 249.727615,77.296959 
	C249.366760,76.193832 249.130325,75.012337 248.565094,74.021790 
	C247.488449,72.134949 245.735825,71.116196 243.559250,71.493958 
	C241.227921,71.898567 239.731232,73.409584 239.272537,75.784775 
	C238.809906,78.180420 240.219070,79.499298 242.114029,80.494667 
	C244.903976,81.960159 247.950851,83.079620 250.442978,84.942284 
	C258.106628,90.670219 257.782471,98.918495 249.741516,103.991989 
	C247.940125,105.128609 247.284286,106.421097 247.018799,108.347092 
	C246.774063,110.122353 245.738373,111.482491 243.789993,111.611824 
	C241.769714,111.745941 240.679764,110.388763 240.362259,108.646057 
	C239.932907,106.289421 238.523682,104.977440 236.624466,103.714676 
	C233.524048,101.653244 232.101898,98.461273 231.850937,94.805931 
	C231.713806,92.808830 232.469009,91.064056 234.610626,90.651604 
	C236.842606,90.221756 237.921844,91.617912 238.394028,93.668770 
	C238.837570,95.595329 239.050659,97.861710 241.320557,98.515129 
	C244.042282,99.298615 246.831055,99.007057 248.322708,96.268921 
	C249.633911,93.862038 248.503830,91.666756 246.356812,90.251602 
	C244.566666,89.071686 242.579330,88.175041 240.632919,87.250702 
	C229.982666,82.192886 228.981705,74.148216 238.368927,66.206650 
z"/>
</svg>