<svg version="1.1" id="Layer_1" xmlns="http://www.w3.org/2000/svg" xmlns:xlink="http://www.w3.org/1999/xlink" x="0px" y="0px"
	 width="100%" viewBox="0 0 368 304" enable-background="new 0 0 368 304" xml:space="preserve">
<path fill="#000000" opacity="1.000000" stroke="none" 
	d="
M76.658569,159.999908 
	C76.658630,128.680466 76.652977,97.861046 76.663628,67.041618 
	C76.666115,59.837376 77.491158,58.971062 84.678642,58.957436 
	C104.836143,58.919228 124.994987,58.812298 145.150391,59.018173 
	C149.919434,59.066883 152.135040,58.068493 151.864899,52.713490 
	C151.509659,45.671314 152.823273,44.694691 159.925476,44.679932 
	C170.087509,44.658813 180.249832,44.636448 190.411591,44.693172 
	C195.756363,44.723007 197.058746,46.109657 197.243713,51.553303 
	C197.494507,58.934288 197.494507,58.928185 205.138794,58.929951 
	C224.963181,58.934525 244.787582,58.925392 264.611908,58.963787 
	C271.516602,58.977161 272.332245,59.828213 272.333557,66.792274 
	C272.341827,110.106056 272.339539,153.419846 272.327118,196.733627 
	C272.325043,203.884079 271.838074,204.351822 264.607025,204.358612 
	C249.946991,204.372406 235.286926,204.365295 220.626877,204.366760 
	C218.822723,204.366943 217.018570,204.366791 215.262650,204.366791 
	C214.369019,207.214813 215.950546,208.975266 216.862076,210.804199 
	C223.918991,224.963501 231.083221,239.069229 238.187012,253.205231 
	C241.605087,260.006958 240.198563,262.282349 232.587967,262.319641 
	C227.257172,262.345764 221.919586,262.159393 216.597458,262.375061 
	C212.883957,262.525482 210.735855,260.963226 209.239517,257.688904 
	C207.165176,253.149734 204.701553,248.789459 202.585083,244.268112 
	C201.299942,241.522705 199.465332,240.326477 196.360657,240.350098 
	C181.701447,240.461639 167.040421,240.468246 152.381378,240.348633 
	C149.440247,240.324631 147.813553,241.422577 146.619186,244.024078 
	C144.535828,248.561935 142.056702,252.918243 139.978455,257.458221 
	C138.408157,260.888580 136.154846,262.564026 132.230270,262.383881 
	C126.910561,262.139709 121.570992,262.354340 116.240341,262.315979 
	C108.951057,262.263519 107.458977,259.881073 110.686111,253.432129 
	C117.840492,239.135178 125.027512,224.854584 132.186371,210.559875 
	C132.996384,208.942429 133.711243,207.277344 134.426575,205.728851 
	C132.848068,203.616364 130.852554,204.415009 129.160858,204.406998 
	C114.001358,204.335251 98.841354,204.380295 83.681602,204.346588 
	C77.444611,204.332718 76.689560,203.589417 76.672661,197.482742 
	C76.638550,185.155212 76.660172,172.827530 76.658569,159.999908 
M84.964394,189.345108 
	C85.017563,196.618195 85.016968,196.607666 92.492340,196.185806 
	C93.987534,196.101410 95.491699,196.063309 96.987488,196.118561 
	C123.284500,197.089905 149.580414,196.188400 175.877121,196.143677 
	C202.688568,196.098099 229.500565,196.402206 256.312378,196.543701 
	C264.010223,196.584320 264.022125,196.569199 264.024872,188.624466 
	C264.038025,150.480438 264.046692,112.336411 264.050720,74.192383 
	C264.051422,67.363716 264.037872,67.351631 257.064697,67.351089 
	C201.930740,67.346794 146.796783,67.347107 91.662819,67.347069 
	C84.994629,67.347061 84.966827,67.349953 84.965401,73.955551 
	C84.957191,112.099579 84.963196,150.243607 84.964394,189.345108 
M215.753815,251.998169 
	C219.499115,255.488373 223.666840,253.431808 228.500549,253.576614 
	C227.135208,250.489960 226.221558,248.196198 225.128403,245.991425 
	C219.433929,234.505981 213.688553,223.045776 207.971237,211.571640 
	C203.995728,203.593170 202.254227,202.828796 192.484421,205.283112 
	C200.153366,220.712418 207.761902,236.020187 215.753815,251.998169 
M149.248230,219.800720 
	C151.686447,214.981247 154.559128,210.353058 156.197647,205.080917 
	C146.138947,203.008316 144.992584,203.548248 140.954102,211.685837 
	C135.490372,222.695343 129.949738,233.666855 124.527863,244.696823 
	C123.177704,247.443527 121.440331,250.091476 121.067833,253.270950 
	C131.267258,255.075363 131.796860,254.721695 135.905655,246.267609 
	C140.116791,237.603027 144.547546,229.045181 149.248230,219.800720 
M171.544266,217.762100 
	C177.069839,217.496429 182.667526,218.332382 188.260529,217.239014 
	C184.878052,205.257919 181.479309,203.054871 169.156448,204.397644 
	C165.826401,204.760513 161.736694,211.352783 161.186844,217.333801 
	C164.274109,218.212128 167.443054,217.602081 171.544266,217.762100 
M193.794037,227.389725 
	C193.057419,227.050735 192.322815,226.421478 191.583862,226.416306 
	C180.431534,226.338211 169.278519,226.308350 158.125931,226.346588 
	C154.619873,226.358612 154.053558,228.965363 153.384186,232.181229 
	C167.587234,232.181229 181.375763,232.181229 195.020660,232.181229 
	C195.714584,230.263702 194.762726,229.182510 193.794037,227.389725 
M186.764008,58.740345 
	C188.908615,58.073227 188.962662,56.425972 188.452545,54.730598 
	C187.968994,53.123558 186.434875,53.181179 185.121231,53.175220 
	C178.309753,53.144299 171.497833,53.128876 164.686615,53.181694 
	C162.750122,53.196709 160.408005,52.882271 160.370712,55.924732 
	C160.329254,59.306160 162.901901,58.861591 164.984497,58.874489 
	C171.961700,58.917698 178.939468,58.870987 186.764008,58.740345 
z"/>
<path fill="#000000" opacity="1.000000" stroke="none" 
	d="
M135.832642,77.005539 
	C149.856567,78.347542 159.990036,84.993355 165.115738,97.637726 
	C170.125626,109.996407 168.106415,121.742706 159.383942,132.155411 
	C151.446350,141.631104 136.875626,145.758667 124.895660,141.762314 
	C111.882942,137.421448 102.476967,125.863770 101.717796,113.282310 
	C100.481468,92.793243 114.838005,77.321312 135.832642,77.005539 
M154.259125,95.309425 
	C150.657364,90.440376 145.746124,87.854340 139.068420,85.960823 
	C139.068420,93.950226 139.004486,100.891273 139.090897,107.830452 
	C139.148468,112.454689 137.044647,114.490196 132.406006,114.365379 
	C126.755974,114.213348 121.095345,114.456589 115.445251,114.305733 
	C111.198647,114.192360 110.636887,116.084480 111.931778,119.586113 
	C115.583305,129.460571 127.600304,136.087616 138.117996,134.492111 
	C155.397568,131.870865 165.822784,111.956078 154.259125,95.309425 
M130.642502,95.696846 
	C130.613617,92.607315 130.795227,89.487038 129.634018,86.547394 
	C123.051918,87.829399 117.842072,91.027863 114.671997,95.908218 
	C112.983734,98.507332 110.259598,101.409492 111.781860,104.448891 
	C113.209412,107.299187 116.920967,105.451302 119.593620,105.870193 
	C120.242088,105.971840 120.920273,105.883820 121.584793,105.883118 
	C130.625793,105.873589 130.625793,105.873589 130.642502,95.696846 
z"/>
<path fill="#000000" opacity="1.000000" stroke="none" 
	d="
M240.163193,112.999878 
	C240.168182,118.995667 240.201645,124.491676 240.166763,129.987259 
	C240.151093,132.457123 240.250092,134.541611 243.510422,135.051300 
	C245.817612,135.411957 247.475555,137.082336 247.003693,139.693100 
	C246.554733,142.177185 244.656143,143.247421 242.249481,143.250061 
	C225.929092,143.267929 209.608566,143.276245 193.288361,143.212967 
	C190.259125,143.201202 188.736847,141.333954 188.719666,138.395966 
	C188.666122,129.236771 188.678314,120.077080 188.697784,110.917656 
	C188.702866,108.525558 189.538376,106.440086 192.216553,106.306816 
	C195.145081,106.161087 196.287109,108.185997 196.309357,110.856155 
	C196.363480,117.350807 196.367416,123.846024 196.359467,130.340973 
	C196.356644,132.644135 196.401428,134.761490 199.616333,134.746002 
	C202.943832,134.729980 202.712982,132.417389 202.716110,130.227859 
	C202.731812,119.236130 202.731720,108.244392 202.739365,97.252655 
	C202.740280,95.920403 202.727829,94.587379 202.767838,93.256096 
	C202.850372,90.509186 203.720871,88.043015 206.849030,87.986046 
	C210.239777,87.924301 211.272202,90.434044 211.277267,93.425247 
	C211.293625,103.084579 211.282211,112.743950 211.280731,122.403305 
	C211.280319,125.067963 211.251816,127.732925 211.283798,130.397171 
	C211.307678,132.385574 211.021896,134.574005 214.053818,134.705460 
	C217.083847,134.836853 217.633652,133.025879 217.619415,130.543839 
	C217.580231,123.715881 217.604141,116.887535 217.609482,110.059349 
	C217.611176,107.894386 217.626480,105.729385 217.647430,103.564507 
	C217.670853,101.144081 218.490540,99.087814 221.191269,99.025391 
	C224.048676,98.959335 225.291000,100.913200 225.303665,103.610336 
	C225.345078,112.436745 225.326202,121.263428 225.362305,130.089874 
	C225.371002,132.218277 224.956100,134.613968 228.323196,134.729141 
	C231.986755,134.854462 231.671204,132.336090 231.671860,129.979507 
	C231.675934,115.490387 231.672546,101.001274 231.676743,86.512154 
	C231.677170,85.013504 231.646622,83.510689 231.743744,82.017166 
	C231.912552,79.421333 232.950760,77.358711 235.882660,77.392067 
	C238.745178,77.424614 240.008240,79.413788 240.079437,82.025162 
	C240.211044,86.851440 240.159790,91.682953 240.167664,96.512314 
	C240.176361,101.841499 240.165909,107.170723 240.163193,112.999878 
z"/>
<path fill="#000000" opacity="1.000000" stroke="none" 
	d="
M106.535995,163.779236 
	C124.789322,163.727875 142.598083,163.705414 160.406860,163.701096 
	C161.734024,163.700775 163.094498,163.669601 164.381042,163.935532 
	C166.611847,164.396637 167.866211,165.934402 167.802185,168.202637 
	C167.743866,170.269028 166.450867,171.579697 164.446762,171.993362 
	C163.319351,172.226089 162.132553,172.235535 160.972473,172.235916 
	C143.662888,172.241547 126.353310,172.229050 109.043732,172.219604 
	C108.544495,172.219345 108.045158,172.195389 107.546036,172.200089 
	C104.960472,172.224411 102.788406,171.340698 102.246910,168.643692 
	C101.673347,165.786972 103.552414,164.429321 106.535995,163.779236 
z"/>
<path fill="#000000" opacity="1.000000" stroke="none" 
	d="
M198.007706,172.237274 
	C194.016388,172.232025 190.523376,172.236694 187.030502,172.216919 
	C184.087051,172.200256 181.497391,171.363831 181.454529,167.930038 
	C181.410110,164.371597 184.156387,163.734238 187.022186,163.728821 
	C203.156372,163.698349 219.290588,163.702423 235.424805,163.696808 
	C237.420746,163.696121 239.416733,163.716858 241.412643,163.711624 
	C244.380722,163.703857 246.985733,164.599731 247.020233,167.965103 
	C247.055664,171.420319 244.294113,172.199402 241.419632,172.207062 
	C227.115189,172.245239 212.810608,172.231842 198.007706,172.237274 
z"/>
<path fill="#000000" opacity="1.000000" stroke="none" 
	d="
M226.997223,178.097366 
	C232.321609,178.127197 237.150330,178.054565 241.970322,178.226807 
	C244.630722,178.321884 247.194412,179.267715 247.036560,182.498169 
	C246.881332,185.674911 244.343582,186.348068 241.625961,186.348648 
	C223.320541,186.352524 205.015106,186.344406 186.709686,186.355774 
	C183.947479,186.357498 181.528809,185.722214 181.446152,182.442062 
	C181.362335,179.115341 183.918915,178.306656 186.564346,178.281693 
	C199.874954,178.156097 213.186630,178.147095 226.997223,178.097366 
z"/>
<path fill="#000000" opacity="1.000000" stroke="none" 
	d="
M106.789848,178.352844 
	C125.353828,178.227402 143.490829,178.148758 161.627914,178.116623 
	C164.626297,178.111313 167.696838,178.652802 167.690247,182.442368 
	C167.684021,186.018875 164.780914,186.365005 161.932465,186.363388 
	C143.959488,186.353180 125.986519,186.347977 108.013573,186.367859 
	C105.337845,186.370819 102.795052,185.996094 102.235474,182.886551 
	C101.692924,179.871658 103.806511,178.824371 106.789848,178.352844 
z"/>
<path fill="#000000" opacity="1.000000" stroke="none" 
	d="
M235.848114,154.755157 
	C234.574829,157.298630 232.577881,157.371017 230.531906,157.370514 
	C219.719284,157.367874 208.906631,157.362961 198.094055,157.388397 
	C195.260757,157.395065 192.279861,157.161118 192.322922,153.549469 
	C192.364700,150.044937 195.277374,149.650818 198.140778,149.656052 
	C208.953354,149.675781 219.766022,149.667084 230.578644,149.657654 
	C233.762085,149.654877 236.279648,150.384048 235.848114,154.755157 
z"/>
<path fill="#000000" opacity="1.000000" stroke="none" 
	d="
M122.114349,149.650436 
	C132.060013,149.651321 141.523941,149.677750 150.987579,149.638748 
	C153.842270,149.626984 156.722122,149.911346 156.837250,153.441147 
	C156.956406,157.094955 154.004776,157.374878 151.187912,157.374908 
	C140.727905,157.375046 130.267914,157.373413 119.807907,157.383255 
	C116.756203,157.386124 113.199600,157.624176 113.275444,153.330627 
	C113.346115,149.329971 116.798691,149.674713 119.640114,149.654694 
	C120.304222,149.650024 120.968369,149.651993 122.114349,149.650436 
z"/>
</svg>