<svg version="1.1" id="Layer_1" xmlns="http://www.w3.org/2000/svg" xmlns:xlink="http://www.w3.org/1999/xlink" x="0px" y="0px"
	 width="100%" viewBox="0 0 395 307" enable-background="new 0 0 395 307" xml:space="preserve">
<path fill="none" opacity="1.000000" stroke="#000000" stroke-linecap="round" stroke-linejoin="round" stroke-width="8.000000"
	d="
M296.000000,198.500000 
	C225.000000,198.500000 154.000000,198.500000 83.000000,198.500000 
"/>
<path fill="none" opacity="1.000000" stroke="#000000" stroke-linecap="round" stroke-linejoin="round" stroke-width="8.000000"
	d="
M119.500000,90.500000 
	C110.666664,90.500000 101.833290,90.482857 93.000015,90.505302 
	C85.620537,90.524055 81.500000,94.665169 81.500000,102.000000 
	C81.500000,131.833328 81.500000,161.666672 81.500000,191.500000 
	C81.500000,197.166672 81.496155,202.833328 81.500954,208.500000 
	C81.507370,216.077194 85.834740,220.471176 93.500031,220.486526 
	C113.499947,220.526581 133.501358,220.372086 153.499115,220.583420 
	C158.995193,220.641495 164.723206,219.044769 170.000000,222.000000 
	C177.830887,218.794113 186.003723,220.989502 194.005203,220.609375 
	C198.807907,220.381210 203.664368,220.018524 208.546982,221.324326 
	C210.937149,221.963531 213.729675,220.422668 216.500320,220.436447 
	C239.166428,220.549194 261.833344,220.503403 284.500000,220.498337 
	C293.518616,220.496323 297.500000,216.506439 297.500000,207.500000 
	C297.500000,172.166672 297.501373,136.833328 297.498749,101.500000 
	C297.498260,94.836212 293.265564,90.609131 286.500000,90.500885 
	C284.123749,90.462868 281.699768,90.781784 279.499390,89.501045 
	C276.246796,87.607857 273.582397,90.062500 271.054077,91.128319 
	C262.247559,94.840706 253.633270,94.740067 245.016373,90.962646 
	C241.551468,89.443726 238.170074,87.957687 234.522888,90.040092 
	C232.990829,90.914841 231.489258,90.457962 229.999847,90.464256 
	C215.833435,90.524185 201.666672,90.500000 187.500000,90.500000 
"/>
<path fill="none" opacity="1.000000" stroke="#000000" stroke-linecap="round" stroke-linejoin="round" stroke-width="8.000000"
	d="
M160.500000,125.000000 
	C160.500000,95.749054 160.500000,66.498100 160.500000,37.292782 
	C159.673538,37.131466 159.337509,37.061577 158.999893,37.000595 
	C147.323288,34.891678 146.500000,35.550415 146.500000,47.000000 
	C146.500000,58.833332 146.894302,70.685204 146.339096,82.492432 
	C146.047104,88.701920 146.589081,94.832664 146.516037,101.000191 
	C146.442993,107.165985 146.537430,113.333702 146.477051,119.499779 
	C146.459106,121.334564 146.166656,123.166664 146.000000,125.000000 
"/>
<path fill="none" opacity="1.000000" stroke="#000000" stroke-linecap="round" stroke-linejoin="round" stroke-width="8.000000"
	d="
M186.000000,125.000000 
	C186.000000,115.333336 186.000000,105.666664 186.000000,96.000000 
	C186.000000,82.666664 185.900772,69.332153 186.059311,56.000706 
	C186.108078,51.898903 184.464081,50.394230 180.499359,50.462486 
	C170.968063,50.626579 171.442474,49.581089 171.491928,59.500042 
	C171.531815,67.499840 171.500000,75.500000 171.500000,83.500000 
	C171.500000,97.333336 171.500000,111.166664 171.500000,125.000000 
"/>
<path fill="none" opacity="1.000000" stroke="#000000" stroke-linecap="round" stroke-linejoin="round" stroke-width="8.000000"
	d="
M106.500000,252.500000 
	C118.333336,252.500000 130.166672,252.500000 142.000000,252.500000 
	C168.833328,252.500000 195.666672,252.500000 222.500000,252.500000 
	C239.166672,252.500000 255.833328,252.500000 272.500000,252.500000 
"/>
<path fill="none" opacity="1.000000" stroke="#000000" stroke-linecap="round" stroke-linejoin="round" stroke-width="8.000000"
	d="
M110.000000,124.500000 
	C110.000000,117.162880 110.000000,109.825760 110.000000,102.764137 
	C105.960083,100.772438 102.175888,101.608727 98.499199,101.557793 
	C96.487434,101.529930 95.473167,102.892265 95.486588,105.000084 
	C95.524788,110.999840 95.494209,117.000008 95.502937,122.999992 
	C95.506294,125.312027 96.689499,126.540848 98.999634,126.484894 
	C102.169319,126.408119 105.595154,127.318710 108.434471,125.871437 
	C111.070831,124.527611 112.747223,127.184540 115.003098,126.510376 
	C121.580879,124.544624 128.337234,126.503098 135.037079,126.057632 
	C140.573120,125.689537 146.661362,125.776459 152.518234,126.293442 
	C161.448654,127.081741 170.527863,126.940750 179.492050,126.374191 
	C188.195358,125.824135 196.834717,126.440773 205.499435,126.546730 
	C209.969437,126.601387 211.681656,124.971191 211.537064,120.498802 
	C211.375580,115.504021 211.451645,110.499352 211.518860,105.500252 
	C211.556656,102.689537 210.310410,101.451042 207.499817,101.483833 
	C195.100220,101.628494 196.531052,100.167694 196.501892,111.500008 
	C196.490326,115.999977 196.500000,120.500000 196.500000,125.000000 
"/>
<path fill="none" opacity="1.000000" stroke="#000000" stroke-linecap="round" stroke-linejoin="round" stroke-width="8.000000"
	d="
M135.500000,125.000000 
	C135.500000,115.333336 135.500000,105.666664 135.500000,96.000000 
	C135.500000,86.166664 135.387451,76.331390 135.557236,66.500992 
	C135.622116,62.744923 134.256577,61.162750 130.497910,61.474899 
	C127.485191,61.725098 124.368217,60.980652 121.000000,62.806274 
	C121.000000,83.330666 121.000000,104.165337 121.000000,125.000000 
"/>
<path fill="none" opacity="1.000000" stroke="#000000" stroke-linecap="round" stroke-linejoin="round" stroke-width="8.000000"
	d="
M278.000000,88.500000 
	C277.864777,86.512581 278.878723,84.880013 280.039825,83.534355 
	C284.669708,78.168602 286.152161,72.303497 286.376038,65.011543 
	C286.659729,55.771439 283.280823,49.176731 276.948486,43.558048 
	C271.780914,38.972851 266.179382,36.480488 258.466766,37.050152 
	C252.909637,37.460613 247.833740,37.710232 242.996307,40.493572 
	C226.503159,49.983322 224.975037,74.705910 238.000000,85.000000 
"/>
<path fill="none" opacity="1.000000" stroke="#000000" stroke-linecap="round" stroke-linejoin="round" stroke-width="8.000000"
	d="
M278.500000,104.500000 
	C271.833344,104.500000 265.166656,104.500000 258.500000,104.500000 
	C253.666672,104.500000 247.868103,102.811485 244.225189,104.893929 
	C238.697250,108.053940 234.682098,113.848953 229.987167,118.487007 
	C229.032028,119.430573 229.745056,120.513062 229.500000,121.500000 
"/>
<path fill="none" opacity="1.000000" stroke="#000000" stroke-linecap="round" stroke-linejoin="round" stroke-width="9.000000"
	d="
M149.500000,251.000000 
	C149.163513,239.972061 150.819702,242.031891 158.500031,242.012100 
	C174.166595,241.971710 189.842377,242.304428 205.495239,241.839539 
	C211.191513,241.670349 216.833130,242.040161 222.500046,242.009033 
	C229.410446,241.971100 229.485580,242.074875 229.499817,249.000000 
	C229.501175,249.666672 229.500000,250.333328 229.500000,251.000000 
"/>
<path fill="none" opacity="1.000000" stroke="#000000" stroke-linecap="round" stroke-linejoin="round" stroke-width="8.000000"
	d="
M137.500000,137.500000 
	C122.833336,137.500000 108.166664,137.500000 93.500000,137.500000 
"/>
<path fill="none" opacity="1.000000" stroke="#000000" stroke-linecap="round" stroke-linejoin="round" stroke-width="7.000000"
	d="
M152.000000,179.500000 
	C140.128738,175.748215 129.003387,170.158127 117.491158,165.521957 
	C115.427429,164.690857 113.298683,163.927917 111.000000,164.000000 
"/>
<path fill="none" opacity="1.000000" stroke="#000000" stroke-linecap="round" stroke-linejoin="round" stroke-width="8.000000"
	d="
M268.000000,172.000000 
	C261.126221,169.974808 255.692825,165.285522 249.505661,161.989365 
	C241.933105,157.955139 234.929871,152.892914 227.000000,149.500000 
"/>
<path fill="none" opacity="1.000000" stroke="#000000" stroke-linecap="round" stroke-linejoin="round" stroke-width="8.000000"
	d="
M210.500000,150.500000 
	C211.833328,151.666672 213.105301,152.913986 214.512024,153.984192 
	C218.092346,156.708054 225.944122,154.292725 226.300476,149.983505 
	C226.520966,147.317612 225.517899,144.334869 222.567581,142.397110 
	C219.724579,140.529831 217.217712,140.984772 214.515152,142.038849 
	C213.911896,142.274124 213.211380,142.918381 213.043411,143.512283 
	C210.636948,152.021744 202.291809,154.200165 196.427292,158.909454 
	C187.596024,166.001083 178.788406,173.188217 169.000000,179.000000 
"/>
<path fill="none" opacity="1.000000" stroke="#000000" stroke-linecap="round" stroke-linejoin="round" stroke-width="8.000000"
	d="
M110.500000,163.500000 
	C109.308815,161.649109 109.874054,159.254181 108.085083,157.417145 
	C105.834679,155.106293 100.527222,154.765793 97.933708,157.435608 
	C95.462334,159.979675 94.428001,163.333832 96.967163,166.526123 
	C99.997444,170.335846 104.985619,170.420990 107.470261,167.969849 
	C108.643646,166.812286 109.500000,165.333328 110.500000,164.000000 
"/>
<path fill="none" opacity="1.000000" stroke="#000000" stroke-linecap="round" stroke-linejoin="round" stroke-width="8.000000"
	d="
M268.500000,172.500000 
	C269.375122,174.083282 269.210876,175.981827 270.444885,177.543549 
	C272.809723,180.536453 276.448730,181.481201 279.500000,179.500015 
	C283.524902,176.886658 284.577026,173.730255 282.500000,170.500000 
	C279.771454,166.256454 276.158905,165.242264 272.478516,167.464432 
	C270.616486,168.588730 269.395294,170.110626 268.500000,172.000000 
"/>
<path fill="none" opacity="1.000000" stroke="#000000" stroke-linecap="round" stroke-linejoin="round" stroke-width="8.000000"
	d="
M249.500000,187.500000 
	C239.167252,187.703262 228.820160,187.016113 218.500000,188.000000 
"/>
<path fill="none" opacity="1.000000" stroke="#000000" stroke-linecap="round" stroke-linejoin="round" stroke-width="8.000000"
	d="
M119.500000,209.500000 
	C110.833336,209.500000 102.166664,209.500000 93.500000,209.500000 
"/>
<path fill="none" opacity="1.000000" stroke="#000000" stroke-linecap="round" stroke-linejoin="round" stroke-width="9.000000"
	d="
M238.000000,88.500000 
	C237.617661,85.993469 238.631210,84.181358 240.467499,82.465225 
	C245.891800,77.395874 251.216827,72.216881 256.469971,66.969948 
	C258.082886,65.358963 259.369049,64.640778 262.012177,64.814262 
	C269.894897,65.331650 277.833344,65.000000 285.750000,65.000000 
"/>
<path fill="none" opacity="1.000000" stroke="#000000" stroke-linecap="round" stroke-linejoin="round" stroke-width="9.000000"
	d="
M258.000000,38.500000 
	C258.000000,45.166668 258.037567,51.833668 257.977814,58.499802 
	C257.959137,60.583466 258.110687,62.592663 259.000000,64.500000 
"/>
<path fill="none" opacity="1.000000" stroke="#000000" stroke-linecap="round" stroke-linejoin="round" stroke-width="8.000000"
	d="
M168.500000,179.500000 
	C167.464828,182.003708 167.496033,185.001312 164.525696,186.549301 
	C161.902954,187.916153 159.454666,188.168015 157.012360,186.482086 
	C154.413483,184.688065 152.430267,182.031326 152.653809,179.011383 
	C152.934601,175.218445 160.763351,172.318619 163.975571,174.535385 
	C165.614960,175.666733 167.000000,177.166672 168.500000,178.500000 
"/>
<path fill="none" opacity="1.000000" stroke="#000000" stroke-linecap="round" stroke-linejoin="round" stroke-width="8.000000"
	d="
M170.000000,222.500000 
	C169.438797,228.752563 165.622284,234.291641 166.000000,240.750000 
"/>
<path fill="none" opacity="1.000000" stroke="#000000" stroke-linecap="round" stroke-linejoin="round" stroke-width="8.000000"
	d="
M209.000000,222.500000 
	C209.561203,228.752563 213.377716,234.291641 213.000000,240.750000 
"/>
</svg>