<svg version="1.1" id="Layer_1" xmlns="http://www.w3.org/2000/svg" xmlns:xlink="http://www.w3.org/1999/xlink" x="0px" y="0px"
	 width="100%" viewBox="0 0 476 472" enable-background="new 0 0 476 472" xml:space="preserve">
<path fill="none" opacity="1.000000" stroke="#000000" stroke-linecap="round" stroke-linejoin="round" stroke-width="8.000000"
	d="
M140.000000,309.750000 
	C136.166672,309.666656 132.333664,309.542816 128.499908,309.510498 
	C123.942566,309.472107 120.698799,312.376434 120.544884,317.001495 
	C120.356506,322.661896 120.356651,328.338104 120.544853,333.998505 
	C120.698502,338.619537 124.352592,341.445740 130.000122,341.481384 
	C140.333038,341.546661 150.666672,341.500000 161.000000,341.500000 
	C175.000000,341.500000 189.000641,341.419220 202.999756,341.530457 
	C211.328857,341.596649 214.707214,338.328400 214.508270,329.999817 
	C214.359543,323.773590 215.318176,317.418549 212.480988,311.509125 
	C211.217499,308.877472 213.387939,306.815002 213.787415,304.550720 
	C214.856705,298.489655 214.531494,292.488464 214.392029,286.502502 
	C214.237518,279.870850 211.229645,277.500000 204.500000,277.500000 
	C179.500000,277.500000 154.500000,277.498505 129.500000,277.501129 
	C123.539589,277.501740 120.752579,280.009979 120.539726,286.001404 
	C120.350487,291.328033 120.626595,296.670776 120.452774,301.998474 
	C120.347664,305.220062 123.329453,306.768494 124.000000,309.500000 
"/>
<path fill="none" opacity="1.000000" stroke="#000000" stroke-linecap="round" stroke-linejoin="round" stroke-width="8.000000"
	d="
M138.000000,244.500000 
	C138.176361,240.000366 138.911194,235.599640 138.678513,230.990982 
	C138.124542,220.018951 138.069046,208.971832 138.785110,198.018646 
	C138.978394,195.062286 138.171646,192.376312 138.403961,189.492264 
	C139.234116,179.186798 138.781555,168.808075 139.026535,158.488754 
	C139.225342,150.114716 139.217392,141.474426 138.438644,133.005646 
	C137.783112,125.876938 141.416656,122.654594 149.000336,122.519180 
	C154.498596,122.420998 160.000000,122.500000 165.500000,122.500000 
	C188.500000,122.500000 211.500000,122.500000 234.500000,122.500000 
	C267.166656,122.500000 299.833344,122.497070 332.500000,122.501793 
	C342.163727,122.503181 344.706421,124.855110 344.436005,134.498199 
	C344.211670,142.498474 343.898315,150.593536 343.975769,158.495331 
	C344.060181,167.111542 344.260406,175.835831 344.427460,184.501404 
	C344.697296,198.496201 344.500000,212.500000 344.500000,226.500000 
	C344.500000,238.833328 344.500000,251.166672 344.500000,263.500000 
	C344.500000,275.166656 344.292816,286.838470 344.582062,298.497955 
	C344.741394,304.920074 340.913971,308.626526 334.499451,308.584259 
	C305.334045,308.391998 276.166656,308.500000 247.000000,308.500000 
	C237.833328,308.500000 228.666534,308.526855 219.500122,308.477386 
	C217.665955,308.467499 215.833328,308.166687 214.000000,308.000000 
"/>
<path fill="none" opacity="1.000000" stroke="#000000" stroke-linecap="round" stroke-linejoin="round" stroke-width="7.000000"
	d="
M343.000000,270.500000 
	C341.000000,270.666656 339.000122,270.977234 336.999969,270.978729 
	C298.333344,271.007477 259.666656,271.006836 221.000015,270.978790 
	C219.166565,270.977448 217.333328,270.666656 215.500000,270.499969 
"/>
<path fill="none" opacity="1.000000" stroke="#000000" stroke-linecap="round" stroke-linejoin="round" stroke-width="8.000000"
	d="
M343.000000,233.500000 
	C275.333344,233.500000 207.666672,233.500000 140.000000,233.500000 
"/>
<path fill="none" opacity="1.000000" stroke="#000000" stroke-linecap="round" stroke-linejoin="round" stroke-width="8.000000"
	d="
M304.000000,196.000000 
	C302.422546,194.941299 300.656494,195.535339 298.999969,195.534058 
	C246.000000,195.492676 193.000000,195.500000 140.000000,195.500000 
"/>
<path fill="none" opacity="1.000000" stroke="#000000" stroke-linecap="round" stroke-linejoin="round" stroke-width="7.000000"
	d="
M343.000000,158.500000 
	C340.833344,158.333328 338.666840,158.024323 336.499969,158.021637 
	C309.666656,157.988510 282.833344,158.000000 256.000000,158.000000 
	C235.833328,158.000000 215.666672,158.000000 195.500000,158.000000 
	C179.166672,158.000000 162.833282,157.981552 146.500061,158.022171 
	C144.332977,158.027557 142.166672,158.333328 140.000000,158.500000 
"/>
<path fill="none" opacity="1.000000" stroke="#000000" stroke-linecap="round" stroke-linejoin="round" stroke-width="7.000000"
	d="
M124.500000,278.000000 
	C117.888046,269.885864 120.664268,260.492615 121.102142,251.504974 
	C121.288116,247.687668 124.526741,246.012665 127.998291,246.083664 
	C133.338120,246.192856 138.561737,244.915436 144.030304,245.816010 
	C149.222809,246.671127 154.666672,246.000000 160.000000,246.000000 
	C165.166672,246.000000 170.333328,246.000000 175.500000,246.000000 
	C180.833328,246.000000 186.166672,246.000000 191.500000,246.000000 
	C196.666672,246.000000 201.835953,245.899277 206.999130,246.033539 
	C210.780594,246.131866 214.102844,249.604370 214.452972,254.003738 
	C214.889267,259.485931 214.004669,265.020294 214.975113,270.504395 
	C215.195541,271.750183 214.429413,272.755676 213.488220,273.484802 
	C211.965988,274.664001 211.187088,276.291382 210.500000,278.000000 
"/>
<path fill="none" opacity="1.000000" stroke="#000000" stroke-linecap="round" stroke-linejoin="round" stroke-width="8.000000"
	d="
M211.500000,309.500000 
	C191.833328,309.500000 172.166672,309.500000 152.500000,309.500000 
"/>
<path fill="none" opacity="1.000000" stroke="#000000" stroke-linecap="round" stroke-linejoin="round" stroke-width="7.000000"
	d="
M138.500000,300.500000 
	C143.758606,298.782227 146.461975,293.620667 144.000168,289.999878 
	C142.173965,287.313934 139.379410,286.265686 136.538376,287.126648 
	C133.736908,287.975555 131.548370,290.329529 131.590851,293.498779 
	C131.629547,296.385925 132.426468,299.265015 135.999191,300.003937 
	C136.671570,300.143005 137.333328,300.333344 138.000000,300.500000 
"/>
<path fill="none" opacity="1.000000" stroke="#000000" stroke-linecap="round" stroke-linejoin="round" stroke-width="8.000000"
	d="
M241.500000,124.000000 
	C241.500000,185.000000 241.500000,246.000000 241.500000,307.000000 
"/>
<path fill="none" opacity="1.000000" stroke="#000000" stroke-linecap="round" stroke-linejoin="round" stroke-width="7.000000"
	d="
M138.000000,319.000000 
	C132.605698,320.535553 130.683121,323.098999 132.000000,327.000000 
	C133.453598,331.306030 136.593765,332.897888 140.509918,331.528381 
	C143.460464,330.496552 144.547226,328.663300 144.592819,325.501343 
	C144.651871,321.406067 142.606506,319.666290 139.000000,319.000000 
"/>
<path fill="none" opacity="1.000000" stroke="#000000" stroke-linecap="round" stroke-linejoin="round" stroke-width="7.000000"
	d="
M223.000000,140.000000 
	C211.333328,140.000000 199.666672,140.000000 188.000000,140.000000 
"/>
<path fill="none" opacity="1.000000" stroke="#000000" stroke-linecap="round" stroke-linejoin="round" stroke-width="8.000000"
	d="
M343.000000,195.500000 
	C334.165741,195.618164 325.320251,195.139389 316.500000,196.000000 
"/>
<path fill="none" opacity="1.000000" stroke="#000000" stroke-linecap="round" stroke-linejoin="round" stroke-width="7.000000"
	d="
M177.500000,140.000000 
	C169.833282,139.835571 162.150238,140.422150 154.500000,139.500000 
"/>
<path fill="none" opacity="1.000000" stroke="#000000" stroke-linecap="round" stroke-linejoin="round" stroke-width="7.000000"
	d="
M276.500000,140.000000 
	C269.169067,139.727554 261.812531,140.581482 254.500000,139.500000 
"/>
<path fill="none" opacity="1.000000" stroke="#000000" stroke-linecap="round" stroke-linejoin="round" stroke-width="7.000000"
	d="
M186.500000,168.000000 
	C188.384537,169.251312 187.989502,171.195267 187.994492,173.000015 
	C188.009689,178.499969 188.000000,184.000000 188.000000,189.500000 
"/>
<path fill="none" opacity="1.000000" stroke="#000000" stroke-linecap="round" stroke-linejoin="round" stroke-width="8.000000"
	d="
M202.000000,325.000000 
	C194.855560,326.122345 187.663345,325.190613 180.500000,325.500000 
"/>
<path fill="none" opacity="1.000000" stroke="#000000" stroke-linecap="round" stroke-linejoin="round" stroke-width="8.000000"
	d="
M202.000000,294.000000 
	C195.000000,293.184113 188.000000,293.184113 181.000000,294.000000 
"/>
<path fill="none" opacity="1.000000" stroke="#000000" stroke-linecap="round" stroke-linejoin="round" stroke-width="8.000000"
	d="
M202.000000,262.000000 
	C195.000000,261.184113 188.000000,261.184113 181.000000,262.000000 
"/>
<path fill="none" opacity="1.000000" stroke="#000000" stroke-linecap="round" stroke-linejoin="round" stroke-width="7.000000"
	d="
M167.500000,262.000000 
	C166.888748,258.551422 165.392166,255.929581 161.500381,255.496506 
	C158.590134,255.172668 155.910110,255.940247 154.584396,258.542999 
	C153.008438,261.637024 153.670990,264.786591 156.530884,266.959351 
	C159.049942,268.873199 161.934586,269.491150 164.456985,266.957184 
	C165.704697,265.703735 166.500015,264.000000 167.500015,262.500000 
"/>
<path fill="none" opacity="1.000000" stroke="#000000" stroke-linecap="round" stroke-linejoin="round" stroke-width="7.000000"
	d="
M154.000000,326.000000 
	C156.285873,332.379303 160.085632,333.919891 164.539856,330.552734 
	C166.905502,328.764435 167.450165,326.582947 166.962891,324.007019 
	C166.454086,321.317291 164.683105,319.543823 161.993286,319.035522 
	C159.093658,318.487610 156.514633,319.141113 155.014206,322.007446 
	C154.427307,323.128632 154.000015,324.333344 153.500015,325.500000 
"/>
<path fill="none" opacity="1.000000" stroke="#000000" stroke-linecap="round" stroke-linejoin="round" stroke-width="7.000000"
	d="
M154.000000,294.000000 
	C155.853088,300.509735 159.882935,302.148407 164.542740,298.555420 
	C166.888275,296.746887 167.541931,294.554626 166.938538,292.014587 
	C166.289001,289.280304 164.607117,287.263275 161.499939,287.000641 
	C158.249695,286.725922 155.950043,288.141052 154.510422,291.005249 
	C154.108795,291.804260 153.833328,292.666656 153.499985,293.500000 
"/>
<path fill="none" opacity="1.000000" stroke="#000000" stroke-linecap="round" stroke-linejoin="round" stroke-width="7.000000"
	d="
M302.000000,140.000000 
	C296.333344,140.000000 290.666656,140.000000 285.000000,140.000000 
"/>
<path fill="none" opacity="1.000000" stroke="#000000" stroke-linecap="round" stroke-linejoin="round" stroke-width="7.000000"
	d="
M331.000000,140.000000 
	C325.333344,140.000000 319.666656,140.000000 314.000000,140.000000 
"/>
<path fill="none" opacity="1.000000" stroke="#000000" stroke-linecap="round" stroke-linejoin="round" stroke-width="7.000000"
	d="
M186.500000,222.500000 
	C187.111694,219.741013 188.372620,217.244141 190.039108,215.029419 
	C191.802490,212.685867 193.355530,210.442902 191.486603,207.508530 
	C190.460190,205.896988 188.887726,204.870865 187.019043,205.552231 
	C183.891220,206.692719 182.193466,209.005325 182.500000,212.500000 
"/>
<path fill="none" opacity="1.000000" stroke="#000000" stroke-linecap="round" stroke-linejoin="round" stroke-width="7.000000"
	d="
M136.000000,255.500000 
	C131.140747,259.818787 130.306656,262.788757 132.993820,266.005157 
	C135.042023,268.456757 137.511703,269.156830 140.500305,268.000793 
	C144.262070,266.545715 145.015350,263.505371 144.462128,260.005981 
	C143.945267,256.736664 141.754013,255.334106 138.499771,255.495224 
	C137.834717,255.528152 137.166672,255.500000 136.500000,255.500000 
"/>
</svg>