<svg version="1.1" id="Layer_1" xmlns="http://www.w3.org/2000/svg" xmlns:xlink="http://www.w3.org/1999/xlink" x="0px" y="0px"
	 width="100%" viewBox="0 0 476 428" enable-background="new 0 0 476 428" xml:space="preserve">
<path fill="none" opacity="1.000000" stroke="#000000" stroke-linecap="round" stroke-linejoin="round" stroke-width="8.000000"
	d="
M177.500000,225.500000 
	C177.500000,194.000000 177.498550,162.500000 177.501190,131.000000 
	C177.501740,124.508774 177.508759,124.501556 184.000000,124.501175 
	C224.000000,124.498825 264.000000,124.496864 304.000000,124.504868 
	C308.000000,124.505669 311.958313,125.413712 316.012512,124.559334 
	C319.589355,123.805557 322.466400,125.118256 325.066376,127.938820 
	C330.174164,133.480026 335.630676,138.703415 341.019531,143.980057 
	C342.900482,145.821823 343.921509,147.829529 343.507202,150.501114 
	C342.163605,159.164795 343.922699,167.822296 343.577484,176.503082 
	C343.226776,185.322464 343.500000,194.166672 343.500000,203.000000 
	C343.500000,211.666672 343.500000,220.333328 343.500000,229.000000 
	C343.500000,237.833328 343.500000,246.666672 343.500000,255.500000 
	C343.500000,264.166656 343.500000,272.833344 343.500000,281.500000 
	C343.500000,290.333344 343.500000,299.166656 343.500000,308.000000 
	C343.500000,316.666656 343.503601,325.333344 343.498840,334.000000 
	C343.494995,341.005188 343.005188,341.498047 336.000000,341.498718 
	C304.500000,341.501678 273.000000,341.500000 241.500000,341.500000 
"/>
<path fill="none" opacity="1.000000" stroke="#000000" stroke-linecap="round" stroke-linejoin="round" stroke-width="8.000000"
	d="
M141.500000,272.750000 
	C145.656631,275.567474 148.828659,279.445129 151.362793,283.584015 
	C153.566467,287.183167 148.517059,293.735535 143.498520,294.490143 
	C143.009567,294.563660 142.499496,294.485168 142.000076,294.502197 
	C133.435699,294.793854 131.895447,296.827972 133.480484,305.503571 
	C134.034988,308.538666 136.195267,308.515656 138.500015,308.510803 
	C142.276535,308.502869 146.099167,307.952637 149.047211,311.460327 
	C152.043579,315.025452 152.437027,318.883240 149.483383,322.486389 
	C147.536240,324.861725 144.785187,326.553986 143.247818,329.641693 
	C145.647888,333.147369 148.826523,335.821259 151.867172,338.618622 
	C155.470947,337.990692 157.080765,334.951111 159.522858,333.029053 
	C162.017746,331.065369 164.779358,329.753448 167.998062,331.503571 
	C171.179245,333.233307 173.700607,335.248230 173.551422,339.501801 
	C173.191757,349.755219 173.213364,348.337402 182.999710,348.515564 
	C186.495468,348.579163 188.418518,347.318573 188.028229,343.497131 
	C187.859787,341.847656 187.781982,340.131226 188.045914,338.507477 
	C188.575989,335.246429 189.889297,332.786713 193.442047,331.356079 
	C196.995834,329.925049 199.464615,331.237823 201.970688,333.040741 
	C204.266632,334.692535 205.655106,337.468201 208.500000,338.500000 
"/>
<path fill="none" opacity="1.000000" stroke="#000000" stroke-linecap="round" stroke-linejoin="round" stroke-width="8.000000"
	d="
M209.000000,340.000000 
	C209.741043,336.671234 213.142578,335.815674 215.104782,333.592468 
	C217.785309,330.555420 218.023041,328.250000 215.024124,325.473938 
	C212.576172,323.207825 210.065033,321.100006 210.399567,316.991821 
	C210.817505,311.859222 213.327133,308.769623 218.501099,308.523132 
	C221.245163,308.392426 224.000580,308.500000 226.768005,308.500000 
	C227.879791,303.770508 227.708893,299.515533 226.999878,295.247559 
	C224.413727,294.142517 221.677155,294.422119 219.001480,294.535004 
	C215.003616,294.703613 211.864746,292.408264 210.774704,289.400452 
	C209.767166,286.620270 209.717133,282.914490 212.445404,279.949768 
	C218.856979,272.982361 218.696320,272.028961 211.480560,266.023376 
	C210.635376,265.319946 209.523254,264.937256 208.540390,264.408875 
	C205.480057,265.459473 203.705963,268.114655 201.602844,270.108490 
	C196.903564,274.563568 188.697418,271.588501 188.006302,264.499390 
	C187.958023,264.004089 188.041061,263.496033 187.993149,263.000671 
	C187.732986,260.310394 189.249466,256.647522 186.640381,255.197205 
	C183.556885,253.483231 179.555115,254.292908 176.009933,254.610794 
	C173.390518,254.845673 173.574448,257.393097 173.468674,259.498413 
	C173.305237,262.751984 174.429199,266.206940 171.532043,269.032867 
	C167.945267,272.531494 162.798111,272.867889 159.008163,269.490845 
	C156.958267,267.664246 155.379059,265.240540 152.239838,264.418182 
	C148.981049,266.783844 145.496445,269.104065 143.500000,273.000000 
"/>
<path fill="none" opacity="1.000000" stroke="#000000" stroke-linecap="round" stroke-linejoin="round" stroke-width="9.000000"
	d="
M310.500000,126.000000 
	C310.821472,136.167053 309.809723,146.377823 311.181091,157.000000 
	C321.494446,157.000000 331.497223,157.000000 341.500000,157.000000 
"/>
<path fill="none" opacity="1.000000" stroke="#000000" stroke-linecap="round" stroke-linejoin="round" stroke-width="8.000000"
	d="
M307.500000,308.500000 
	C289.166656,308.500000 270.833344,308.500000 252.500000,308.500000 
"/>
<path fill="none" opacity="1.000000" stroke="#000000" stroke-linecap="round" stroke-linejoin="round" stroke-width="8.000000"
	d="
M307.500000,283.500000 
	C289.166656,283.500000 270.833344,283.500000 252.500000,283.500000 
"/>
<path fill="none" opacity="1.000000" stroke="#000000" stroke-linecap="round" stroke-linejoin="round" stroke-width="8.000000"
	d="
M307.500000,261.500000 
	C289.166656,261.500000 270.833344,261.500000 252.500000,261.500000 
"/>
<path fill="none" opacity="1.000000" stroke="#000000" stroke-linecap="round" stroke-linejoin="round" stroke-width="9.000000"
	d="
M241.500000,186.000000 
	C238.835785,186.390533 238.495789,188.317245 238.496765,190.500000 
	C238.503113,204.500000 238.523026,218.500076 238.480621,232.499939 
	C238.472107,235.309662 239.690689,236.521164 242.500000,236.521210 
	C254.130539,236.521393 253.075195,236.937012 253.015442,226.999908 
	C252.948303,215.833633 252.903320,204.665527 253.035278,193.500412 
	C253.117950,186.505417 252.493027,185.733963 245.499771,185.993896 
	C244.334717,186.037201 243.166672,186.000000 242.000000,186.000000 
"/>
<path fill="none" opacity="1.000000" stroke="#000000" stroke-linecap="round" stroke-linejoin="round" stroke-width="8.000000"
	d="
M270.500000,200.500000 
	C268.028595,200.729782 267.482178,202.352844 267.488403,204.500031 
	C267.515411,213.833282 267.532318,223.166855 267.480347,232.499893 
	C267.464691,235.309906 268.689301,236.581833 271.500366,236.516342 
	C274.582764,236.444534 277.668091,236.500000 281.125000,236.500000 
	C281.125000,224.421463 281.125000,212.837524 281.125000,201.269608 
	C277.742645,199.986801 274.338989,200.674423 271.000000,200.500000 
"/>
<path fill="none" opacity="1.000000" stroke="#000000" stroke-linecap="round" stroke-linejoin="round" stroke-width="8.000000"
	d="
M299.500000,211.500000 
	C297.664124,211.664139 296.536896,212.663147 296.522522,214.500183 
	C296.467010,221.586975 296.500000,228.674469 296.500000,235.771896 
	C301.229462,236.880249 305.484558,236.704437 310.125000,235.939514 
	C310.125000,228.088623 310.125000,220.171997 310.125000,212.269608 
	C306.742645,210.986801 303.338989,211.674423 300.000000,211.500000 
"/>
<path fill="none" opacity="1.000000" stroke="#000000" stroke-linecap="round" stroke-linejoin="round" stroke-width="8.000000"
	d="
M178.000000,283.500000 
	C170.844803,285.243561 165.716080,289.110291 163.451797,296.485199 
	C161.231979,303.715332 163.969574,311.431030 170.478638,316.030243 
	C177.859955,321.245819 186.035934,320.526489 191.960770,315.454193 
	C198.363815,309.972473 200.384338,304.016907 197.427063,295.525391 
	C194.445374,286.963867 188.560120,283.500000 178.500000,283.500000 
"/>
<path fill="none" opacity="1.000000" stroke="#000000" stroke-linecap="round" stroke-linejoin="round" stroke-width="9.000000"
	d="
M212.500000,157.000000 
	C209.992584,157.495056 209.492599,159.300491 209.493561,161.500000 
	C209.503891,185.166672 209.514236,208.833344 209.481155,232.499969 
	C209.477219,235.309479 210.692703,236.673706 213.499481,236.491959 
	C216.843292,236.275436 220.309357,237.260269 223.517151,235.294785 
	C224.207001,233.545029 223.996735,231.512070 223.997162,229.500000 
	C224.001740,208.000000 224.000000,186.500000 224.000000,165.000000 
	C224.000000,157.000000 224.000000,157.000000 216.000000,157.000000 
	C215.000000,157.000000 214.000000,157.000000 213.000000,157.000000 
"/>
</svg>