<svg version="1.1" id="Layer_1" xmlns="http://www.w3.org/2000/svg" xmlns:xlink="http://www.w3.org/1999/xlink" x="0px" y="0px"
	 width="100%" viewBox="0 0 368 320" enable-background="new 0 0 368 320" xml:space="preserve">
<path fill="#000000" opacity="1.000000" stroke="none" 
	d="
M193.000092,75.680786 
	C209.993805,75.683266 226.487610,75.653381 242.981186,75.697945 
	C258.975464,75.741165 270.279022,87.076973 270.293304,103.149254 
	C270.330780,145.299789 270.332397,187.450394 270.307098,229.600937 
	C270.297272,245.934662 258.974518,257.291718 242.703720,257.301636 
	C200.719772,257.327271 158.735779,257.325897 116.751831,257.299438 
	C99.721069,257.288696 88.701591,246.189209 88.693497,229.059998 
	C88.673820,187.409241 88.675652,145.758469 88.695961,104.107712 
	C88.704506,86.589996 99.572052,75.707352 117.029015,75.694489 
	C142.186020,75.675949 167.343063,75.684196 193.000092,75.680786 
M111.508469,118.318886 
	C108.676933,118.314568 105.817421,118.561348 103.020157,118.249565 
	C98.330650,117.726852 97.080887,119.689934 97.099953,124.200493 
	C97.247841,159.178848 97.152435,194.158173 97.186684,229.137131 
	C97.199196,241.919525 104.181892,248.834320 117.045952,248.842056 
	C158.521042,248.866959 199.996201,248.862518 241.471298,248.838608 
	C254.997421,248.830795 261.818939,242.065598 261.829224,228.611359 
	C261.855560,194.132080 261.832947,159.652756 261.817963,125.173454 
	C261.814972,118.328110 261.790405,118.317192 254.920471,118.316895 
	C207.448959,118.314873 159.977448,118.317772 111.508469,118.318886 
M131.424683,109.871986 
	C139.283005,110.869843 144.762451,108.693169 147.454697,100.260826 
	C149.838776,92.793701 156.103790,89.638954 163.870163,89.636604 
	C183.364090,89.630722 202.858032,89.620071 222.351944,89.637337 
	C233.985580,89.647644 238.559052,92.687698 243.035690,103.281441 
	C245.435883,108.961304 255.002747,112.368416 260.303680,109.483604 
	C261.773743,108.683578 261.670868,107.363174 261.784851,106.051720 
	C262.963989,92.485695 255.368042,84.222328 241.569077,84.211899 
	C200.082016,84.180534 158.594925,84.180702 117.107841,84.194855 
	C104.032928,84.199310 97.198586,91.336853 97.091194,104.329727 
	C97.053658,108.870689 98.754539,110.045990 102.956032,109.941948 
	C112.114204,109.715164 121.281830,109.870132 131.424683,109.871986 
M153.915314,106.096542 
	C152.095764,109.695045 154.287155,109.890915 157.012283,109.886795 
	C181.790329,109.849335 206.568451,109.861748 231.346497,109.823471 
	C232.765747,109.821274 234.418579,110.210243 235.339554,108.542786 
	C233.238892,100.181732 230.062439,97.474403 221.910538,97.448990 
	C203.461700,97.391479 185.012604,97.421631 166.563614,97.421097 
	C160.704529,97.420929 156.198730,99.530159 153.915314,106.096542 
z"/>
<path fill="#000000" opacity="1.000000" stroke="none" 
	d="
M104.515808,235.882782 
	C103.440048,233.444595 103.587158,231.260315 103.588882,229.101379 
	C103.612823,199.124573 103.632256,169.147766 103.682770,139.170990 
	C103.701393,128.120850 107.236855,124.662880 118.421089,124.660645 
	C159.555969,124.652420 200.690842,124.647636 241.825714,124.656151 
	C252.184738,124.658295 255.959381,128.342270 255.922958,138.853424 
	C255.817429,169.319534 255.623367,199.785477 255.392166,230.250916 
	C255.332230,238.150131 251.455734,242.331375 243.558731,242.755447 
	C237.413773,243.085434 231.239349,242.886841 225.078018,242.888611 
	C189.938538,242.898651 154.799042,242.917953 119.659599,242.882401 
	C113.748070,242.876419 107.794533,242.713623 104.515808,235.882782 
M148.417267,148.281891 
	C148.464340,150.612823 148.564651,152.944244 148.544189,155.274582 
	C148.521698,157.836868 149.749710,158.725281 152.251709,158.721085 
	C182.739120,158.669968 213.226669,158.658218 243.714050,158.714233 
	C246.843887,158.719986 247.743637,157.315933 247.680908,154.440613 
	C247.560989,148.945511 247.597305,143.445312 247.664337,137.948395 
	C247.714523,133.833405 245.582336,132.430420 241.712219,132.436829 
	C215.559128,132.480042 189.405884,132.441528 163.252701,132.423950 
	C148.367126,132.413940 148.367126,132.409256 148.417267,148.281891 
M118.790924,132.433929 
	C113.920700,132.028412 111.785362,134.134216 112.047768,139.133041 
	C112.317261,144.267120 112.187416,149.426605 112.106140,154.572968 
	C112.060127,157.486542 113.189316,158.788651 116.222794,158.729858 
	C122.696709,158.604324 129.176895,158.590378 135.650146,158.731186 
	C138.887283,158.801620 140.122223,157.457626 140.077423,154.306992 
	C139.992462,148.330383 139.925430,142.344513 140.172592,136.375809 
	C140.305099,133.176071 138.990387,132.331848 136.093811,132.397797 
	C130.621857,132.522339 125.145027,132.432587 118.790924,132.433929 
M185.279816,191.691910 
	C185.666016,194.027832 184.034683,197.556610 188.429916,197.617966 
	C195.718460,197.719696 203.015610,197.819794 210.297455,197.574448 
	C215.222473,197.408539 213.195862,193.307480 213.545731,190.710144 
	C213.916611,187.956741 212.891266,186.168167 209.697388,186.465454 
	C203.082687,187.081146 196.467636,187.019485 189.843796,186.543121 
	C186.880142,186.329987 185.018173,187.524536 185.279816,191.691910 
M188.023514,216.854218 
	C195.166122,216.875961 202.309570,216.838577 209.451004,216.941681 
	C213.714722,217.003235 213.567520,214.180710 213.638214,211.201920 
	C213.709854,208.182449 213.313156,205.984253 209.458786,206.074478 
	C203.482346,206.214401 197.498215,206.001312 191.519852,206.095642 
	C189.492401,206.127640 186.449188,205.098389 185.803223,207.654083 
	C185.063461,210.580948 183.719864,214.169922 188.023514,216.854218 
M156.652847,216.914871 
	C161.983246,216.917801 167.317261,216.801468 172.642822,216.963394 
	C176.543640,217.082001 176.873779,214.761139 176.830734,211.789841 
	C176.788132,208.849564 177.075760,205.984680 172.694519,206.078903 
	C166.701218,206.207794 160.702271,206.061752 154.705719,206.054001 
	C148.471390,206.045944 148.389175,206.441315 148.396103,212.493164 
	C148.403015,218.515961 152.593735,216.601410 156.652847,216.914871 
M213.245697,168.427002 
	C212.720612,168.067307 212.199234,167.400391 211.669861,167.394012 
	C203.852386,167.299408 196.029587,167.127411 188.217255,167.329834 
	C183.873138,167.442398 185.603058,171.127502 185.312485,173.463699 
	C184.975159,176.175720 185.853760,177.952698 189.075089,177.910675 
	C195.896332,177.821671 202.719986,177.841385 209.541779,177.906586 
	C212.553299,177.935379 213.776627,176.510559 213.597229,173.611954 
	C213.504822,172.118774 213.491623,170.620712 213.245697,168.427002 
M154.856689,197.674545 
	C160.680496,197.672684 166.514313,197.458481 172.325119,197.732346 
	C177.496674,197.976089 176.650162,194.540405 176.835526,191.426300 
	C177.030304,188.154373 176.156616,186.560822 172.391708,186.760757 
	C166.252029,187.086823 160.082413,186.935776 153.927368,186.848953 
	C150.937622,186.806793 148.073074,186.471878 148.424057,190.944687 
	C148.709076,194.576569 148.061874,198.762421 154.856689,197.674545 
M150.405533,167.424179 
	C146.560181,169.859146 148.616150,173.539108 149.013535,176.452774 
	C149.342667,178.865784 152.367874,177.827606 154.215637,177.865326 
	C160.193542,177.987305 166.182983,177.731644 172.153229,177.978592 
	C176.561111,178.160919 176.847321,175.686081 176.881744,172.309677 
	C176.916565,168.892227 176.084686,167.020325 172.163757,167.152512 
	C165.194366,167.387497 158.213043,167.268738 150.405533,167.424179 
M116.821556,197.674637 
	C122.981728,197.675339 129.141891,197.680557 135.302063,197.674545 
	C137.802429,197.672119 140.575562,198.141876 140.136658,194.050644 
	C139.779144,190.718185 140.929123,186.726089 135.230057,186.839386 
	C129.080170,186.961624 122.921669,186.591415 116.765938,186.511520 
	C114.695435,186.484650 111.775352,185.921463 112.160126,189.292984 
	C112.507370,192.335648 109.572838,197.213455 116.821556,197.674637 
M226.784637,197.673767 
	C232.276749,197.675491 237.780029,197.459976 243.257782,197.741379 
	C248.508835,198.011139 247.462585,194.488678 247.683731,191.422791 
	C247.940659,187.860931 246.745407,186.017487 242.913422,186.416489 
	C237.438614,186.986557 231.958069,186.943192 226.470596,186.468689 
	C223.580475,186.218796 220.944153,186.515427 221.375961,190.535202 
	C221.710327,193.647888 219.752274,198.204224 226.784637,197.673767 
M139.756424,208.027679 
	C139.211899,206.507187 137.936005,206.173141 136.551315,206.164230 
	C129.557205,206.119202 122.562775,206.080521 115.568634,206.100952 
	C111.458900,206.112961 112.013359,209.223206 111.922112,211.833359 
	C111.828117,214.522125 112.094536,216.937180 115.726791,216.913330 
	C121.222610,216.877228 126.718948,216.931046 132.215057,216.926727 
	C140.258636,216.920410 140.258636,216.912903 139.756424,208.027679 
M125.505432,167.207047 
	C122.506973,167.210938 119.497604,167.378342 116.512688,167.179245 
	C112.347351,166.901398 112.033150,169.373093 112.041092,172.565598 
	C112.049088,175.782303 112.469002,178.085449 116.579620,177.953186 
	C122.736511,177.755096 128.911179,177.749695 135.066269,177.981354 
	C139.204132,178.137085 140.103256,176.143539 140.117661,172.506287 
	C140.132385,168.788727 139.060547,166.832611 134.987061,167.159912 
	C132.173187,167.386032 129.326736,167.206589 125.505432,167.207047 
M231.545303,216.932800 
	C235.701538,216.920898 239.858521,216.855606 244.013809,216.912903 
	C247.769165,216.964661 247.745834,214.441345 247.648972,211.817291 
	C247.554749,209.265045 248.405975,206.134705 244.144531,206.130707 
	C237.661423,206.124649 231.178345,206.082611 224.695282,206.088501 
	C223.307220,206.089752 222.130844,206.458023 221.527481,207.975967 
	C219.426361,213.261948 221.865387,216.908920 227.576492,216.925476 
	C228.574020,216.928360 229.571564,216.927628 231.545303,216.932800 
M247.639175,174.229874 
	C247.635376,167.217957 247.635376,167.214996 240.501328,167.211761 
	C235.521194,167.209503 230.535202,167.366562 225.562836,167.171509 
	C221.715027,167.020569 221.223145,169.154404 221.329575,172.205872 
	C221.429138,175.060699 220.879532,178.038086 225.351669,177.927109 
	C231.489914,177.774780 237.634857,177.894516 243.776932,177.891556 
	C245.732468,177.890610 247.506927,177.623230 247.639175,174.229874 
M169.346832,225.349014 
	C163.555313,225.351135 157.763458,225.390335 151.972382,225.341202 
	C148.619431,225.312744 148.408813,227.479187 148.384094,230.007996 
	C148.358704,232.605392 148.731613,234.619324 152.046265,234.579300 
	C158.822083,234.497452 165.599350,234.538651 172.376022,234.523987 
	C175.387222,234.517471 176.717163,233.174332 176.898224,229.993301 
	C177.208893,224.534851 173.546371,225.379883 169.346832,225.349014 
M139.323502,226.316650 
	C130.802048,224.218216 122.161011,225.699814 113.577293,225.512222 
	C111.970253,225.477097 111.513901,226.939056 111.441917,228.395035 
	C111.251778,232.240753 112.919540,234.514496 116.909576,234.508789 
	C122.236641,234.501144 127.568222,234.133652 132.889236,234.266525 
	C140.452454,234.455399 140.566116,234.467148 139.323502,226.316650 
M208.148834,225.362152 
	C201.817719,225.358353 195.485352,225.428955 189.155975,225.322037 
	C185.529510,225.260773 185.317017,227.467087 185.214325,230.239792 
	C185.100677,233.308395 186.251358,234.290115 189.310440,234.190994 
	C195.792099,233.980972 202.285385,234.140793 208.773788,234.120468 
	C210.995712,234.113510 213.637100,234.953766 213.648499,231.065872 
	C213.658218,227.744125 213.557983,224.876205 208.148834,225.362152 
M246.616348,225.881317 
	C239.361542,224.699051 232.056961,225.600510 224.778976,225.370621 
	C221.335388,225.261841 221.385818,227.729660 221.337326,230.174210 
	C221.290543,232.533005 221.418747,234.506180 224.609756,234.479935 
	C229.925278,234.436203 235.243347,234.659195 240.558289,234.596527 
	C246.482498,234.526672 247.929596,232.611725 246.616348,225.881317 
z"/>
<path fill="#000000" opacity="1.000000" stroke="none" 
	d="
M140.259827,97.829605 
	C141.602859,101.543419 140.044357,103.620583 137.019653,104.649811 
	C134.710678,105.435501 132.801163,104.395370 131.631027,102.313629 
	C130.315659,99.973503 130.814972,97.710075 132.853943,96.148666 
	C135.589661,94.053726 138.072968,94.878807 140.259827,97.829605 
z"/>
<path fill="#000000" opacity="1.000000" stroke="none" 
	d="
M121.824661,95.080948 
	C124.704872,95.856133 126.166336,97.446022 126.262115,100.090294 
	C126.327209,101.887619 125.573074,103.332298 123.935295,104.125420 
	C121.132500,105.482712 118.395760,104.977524 117.224167,102.152931 
	C115.673218,98.413719 117.239044,95.763290 121.824661,95.080948 
z"/>
<path fill="#000000" opacity="1.000000" stroke="none" 
	d="
M109.195358,95.700668 
	C111.685455,97.567390 112.890839,99.556351 111.314560,102.253731 
	C110.225861,104.116760 108.556732,105.153687 106.376137,104.766785 
	C103.484444,104.253716 101.938354,102.213890 102.385132,99.460342 
	C102.947517,95.994255 105.188110,94.365120 109.195358,95.700668 
z"/>
<path fill="#000000" opacity="1.000000" stroke="none" 
	d="
M183.148575,150.519653 
	C179.988876,149.718719 178.601089,147.849777 178.942322,145.014725 
	C179.227997,142.641235 180.797318,141.182999 183.178513,140.867950 
	C185.355118,140.579987 187.035461,141.581757 188.122513,143.433701 
	C189.940384,146.530777 188.128036,149.296021 183.148575,150.519653 
z"/>
<path fill="#000000" opacity="1.000000" stroke="none" 
	d="
M216.600006,143.136902 
	C218.113419,146.578415 217.381546,149.122391 214.119217,150.242783 
	C211.495514,151.143845 209.088211,150.248383 208.042068,147.463821 
	C207.117828,145.003784 207.936584,142.841721 210.211227,141.484421 
	C212.607224,140.054733 214.641464,140.939575 216.600006,143.136902 
z"/>
<path fill="#000000" opacity="1.000000" stroke="none" 
	d="
M197.281311,140.915497 
	C201.107788,140.876083 202.901611,142.839264 202.908554,146.047852 
	C202.913528,148.345932 201.433044,150.031921 198.984802,150.423264 
	C196.617325,150.801697 194.611954,150.040131 193.808594,147.694489 
	C192.758438,144.628250 193.642151,142.198868 197.281311,140.915497 
z"/>
</svg>