<svg version="1.1" id="Layer_1" xmlns="http://www.w3.org/2000/svg" xmlns:xlink="http://www.w3.org/1999/xlink" x="0px" y="0px"
	 width="100%" viewBox="0 0 432 368" enable-background="new 0 0 432 368" xml:space="preserve">
<path fill="#000000" opacity="1.000000" stroke="none" 
	d="
M125.374840,223.039368 
	C109.243752,217.749268 99.394859,207.273041 96.090874,190.885986 
	C94.631126,183.645950 95.279060,182.221268 101.968224,178.647720 
	C103.126427,178.028961 103.616127,177.064529 103.973518,175.937622 
	C109.099152,159.775711 117.406479,145.133560 125.798866,130.548737 
	C127.327766,127.891731 127.310234,125.975166 125.581360,123.358391 
	C121.940079,117.847038 122.664871,111.629501 126.899811,107.370270 
	C131.307205,102.937599 137.636826,102.368896 143.325745,106.264648 
	C145.419174,107.698219 147.280197,108.320732 149.780518,107.766335 
	C163.429596,104.739944 177.091766,101.769295 190.779526,98.924179 
	C193.006638,98.461258 193.640945,97.108856 194.309586,95.304817 
	C199.798798,80.494766 214.638031,77.198814 225.480316,88.457512 
	C227.381897,90.432121 229.201187,90.842323 231.703598,90.238892 
	C236.392990,89.108086 241.117233,88.111839 245.848953,87.170113 
	C249.032654,86.536476 251.601242,87.405655 252.250381,90.952545 
	C252.861313,94.290680 251.241028,96.403450 247.970551,97.173576 
	C243.275894,98.279076 238.571594,99.345528 233.859924,100.376106 
	C231.384766,100.917480 230.418655,102.663864 228.980392,104.660774 
	C223.194122,112.694572 224.353210,121.695984 224.348724,130.583374 
	C224.331482,164.746948 224.347229,198.910522 224.359909,233.074097 
	C224.362350,239.629700 224.381638,239.629700 231.072037,239.682022 
	C239.935135,239.751328 241.142334,240.757767 240.996307,249.851974 
	C240.922974,254.419144 242.403458,255.928406 247.015350,255.819214 
	C256.732483,255.589142 257.926422,256.987518 257.973175,266.664917 
	C257.990082,270.162750 258.061432,273.672516 257.815338,277.156158 
	C257.540161,281.051300 255.322083,283.255768 251.307114,283.258667 
	C224.976349,283.277710 198.645538,283.286255 172.314835,283.251190 
	C168.073105,283.245514 165.853104,280.954041 165.803070,276.707336 
	C165.746140,271.875214 165.740112,267.041840 165.775757,262.209503 
	C165.805466,258.181152 167.998413,256.110199 171.916473,255.759857 
	C172.909485,255.671066 173.914871,255.715546 174.914642,255.708145 
	C182.561203,255.651489 182.561203,255.652222 182.676315,248.138229 
	C182.786545,240.942490 183.988724,239.743469 191.154465,239.682343 
	C198.792679,239.617188 198.828156,239.617203 198.831161,231.978882 
	C198.846191,193.815659 198.847717,155.652435 198.837662,117.489212 
	C198.835495,109.224586 197.379791,108.160378 189.316757,109.915359 
	C177.284256,112.534325 165.212097,114.971138 153.180603,117.594589 
	C145.960175,119.169006 143.175217,125.601799 146.761627,132.022995 
	C154.640289,146.129150 162.780609,160.111099 167.513947,175.713577 
	C167.953812,177.163498 168.502167,178.591339 170.322311,178.854889 
	C175.929520,179.666748 176.462677,183.592896 176.057022,188.143082 
	C173.997849,211.240143 150.853317,228.416428 128.224380,223.628754 
	C127.409744,223.456421 126.589005,223.312943 125.374840,223.039368 
M108.064804,195.448334 
	C114.064018,207.933685 123.715492,214.531738 137.839478,213.896118 
	C149.106354,213.389099 159.899643,205.472244 163.741547,194.918839 
	C165.480820,190.141159 165.006012,189.364029 159.886887,189.348679 
	C143.570755,189.299774 127.254402,189.308014 110.938240,189.344406 
	C109.534943,189.347534 107.890182,188.840393 106.681915,190.660339 
	C107.012161,191.922440 107.385490,193.349152 108.064804,195.448334 
M143.741913,147.725677 
	C141.290283,143.448456 138.838638,139.171249 135.871567,133.994766 
	C127.068108,148.621414 119.521927,162.623688 113.861282,178.440369 
	C128.927475,178.440369 142.906021,178.440369 157.344849,178.440369 
	C154.418106,167.313004 148.999298,157.957367 143.741913,147.725677 
M214.071945,197.500000 
	C214.065414,173.000687 214.061234,148.501389 214.045013,124.002090 
	C214.044250,122.838921 213.998169,121.668633 213.862885,120.514595 
	C213.709229,119.203850 212.957932,118.356827 211.574203,118.342140 
	C210.150848,118.327026 209.472824,119.194206 209.391220,120.537735 
	C209.320572,121.700844 209.307281,122.868813 209.307190,124.034630 
	C209.304276,160.533707 209.305542,197.032791 209.309647,233.531876 
	C209.309784,234.698044 209.322342,235.865250 209.372467,237.030106 
	C209.427811,238.315399 209.893936,239.339157 211.359604,239.433884 
	C213.052170,239.543289 213.763580,238.506546 213.880737,236.993896 
	C213.983505,235.667053 213.995285,234.331055 213.998840,232.998978 
	C214.029572,221.499344 214.049286,209.999664 214.071945,197.500000 
M187.534592,266.222992 
	C185.040390,266.226166 182.545212,266.274109 180.052277,266.219574 
	C177.682877,266.167755 176.246979,266.921021 176.293884,269.616974 
	C176.335800,272.025330 177.606262,272.811066 179.765594,272.810608 
	C200.883148,272.806000 222.000702,272.807495 243.118256,272.815277 
	C245.434769,272.816132 246.965668,272.079132 246.925949,269.392151 
	C246.884445,266.585419 245.086380,266.203522 242.896729,266.219513 
	C241.899155,266.226776 240.901428,266.212494 239.903778,266.212708 
	C222.776779,266.216095 205.649765,266.220215 187.534592,266.222992 
M198.766739,250.151352 
	C196.712204,250.513626 193.516754,249.078964 193.417923,252.773895 
	C193.307526,256.901367 196.767853,255.619339 198.944885,255.655136 
	C207.232498,255.791458 215.526993,255.841415 223.811432,255.630127 
	C226.217865,255.568726 230.377655,257.352173 230.330368,252.788193 
	C230.286942,248.594757 226.336273,250.309250 224.069199,250.249924 
	C215.950607,250.037552 207.823242,250.159195 198.766739,250.151352 
M212.320572,92.373703 
	C205.559448,93.522110 202.653137,97.604111 204.966888,102.782837 
	C206.394852,105.978981 208.934158,107.810326 212.427094,107.393631 
	C216.080002,106.957855 218.413239,104.711342 218.907516,100.915428 
	C219.499557,96.368965 217.317947,93.689575 212.320572,92.373703 
z"/>
<path fill="#000000" opacity="1.000000" stroke="none" 
	d="
M276.519531,98.670036 
	C278.298187,95.767960 279.472687,93.639206 276.847626,90.454025 
	C272.866638,85.623558 273.782593,78.626038 278.012787,74.535347 
	C282.566559,70.131737 289.977814,69.678032 294.977051,73.496811 
	C299.783600,77.168396 301.634155,84.444527 298.006256,89.621841 
	C295.323914,93.449715 296.273712,96.018280 298.228699,99.397987 
	C306.239197,113.245934 314.085693,127.194740 318.841644,142.597549 
	C319.438080,144.529205 320.312439,145.691910 322.488342,146.054047 
	C326.298828,146.688248 327.355164,149.348526 327.387543,152.993973 
	C327.544189,170.639755 311.963043,188.313065 293.683929,191.034561 
	C271.484894,194.339676 251.007202,179.540833 247.256729,157.482529 
	C246.000137,150.091873 246.498978,149.020432 253.236526,145.708237 
	C254.643982,145.016312 255.073868,143.865891 255.461990,142.603760 
	C260.253601,127.022064 268.377441,113.037186 276.519531,98.670036 
M272.308167,177.291763 
	C295.416992,188.831940 315.738770,171.198532 315.897003,156.920029 
	C315.453644,156.763519 314.991943,156.459045 314.529358,156.457672 
	C296.919861,156.405411 279.310242,156.395004 261.700745,156.340988 
	C258.177216,156.330170 257.957153,158.128067 258.866425,160.894470 
	C261.150360,167.843216 265.625549,172.993958 272.308167,177.291763 
M275.584778,145.879837 
	C286.457367,145.879837 297.329987,145.879837 309.260071,145.879837 
	C303.523254,129.433777 295.670776,115.665024 287.195679,100.920128 
	C278.662079,115.984474 270.580902,129.645950 265.696045,145.002121 
	C269.003723,146.388168 271.855835,145.660797 275.584778,145.879837 
z"/>
<path fill="#000000" opacity="1.000000" stroke="none" 
	d="
M264.564209,94.003937 
	C260.555573,94.648827 257.593964,93.659142 257.133453,89.716400 
	C256.669281,85.741882 259.661865,84.398972 262.997833,83.619392 
	C266.468018,82.808434 269.125153,83.828461 270.020813,87.298843 
	C271.053558,91.300339 268.293457,92.952965 264.564209,94.003937 
z"/>
</svg>