<svg version="1.1" id="Layer_1" xmlns="http://www.w3.org/2000/svg" xmlns:xlink="http://www.w3.org/1999/xlink" x="0px" y="0px"
	 width="100%" viewBox="0 0 464 336" enable-background="new 0 0 464 336" xml:space="preserve">
<path fill="#000000" opacity="1.000000" stroke="none" 
	d="
M118.626129,176.092560 
	C151.327179,143.251816 183.805405,110.724762 216.283340,78.197449 
	C227.109375,67.354950 237.943024,56.520035 248.756500,45.665039 
	C253.412140,40.991524 254.819870,40.935120 259.375580,45.491081 
	C283.399811,69.516701 307.419617,93.546722 331.433807,117.582382 
	C335.996643,122.149284 335.973236,123.631531 331.359680,128.245132 
	C288.847961,170.757187 246.336914,213.269943 203.821274,255.778107 
	C198.934357,260.664154 197.246078,260.626678 192.283966,255.725555 
	C184.300400,247.840134 185.907227,247.179886 177.682449,255.840057 
	C174.931030,258.737091 172.071915,261.534912 169.196411,264.310089 
	C167.047791,266.383728 164.594208,268.238098 161.905991,265.357269 
	C159.492874,262.771240 161.050934,260.398041 163.133957,258.435883 
	C168.445541,253.432556 173.815811,248.491501 178.923126,243.747955 
	C176.905075,239.871414 174.857605,238.032303 172.239380,236.437729 
	C168.260361,238.986160 165.492294,242.802963 162.076202,245.900345 
	C159.985504,247.796005 157.732880,250.533066 154.912613,247.669861 
	C152.126877,244.841644 154.186203,242.181503 156.448273,239.934433 
	C157.984360,238.408539 159.525101,236.887253 161.072281,235.372635 
	C167.022629,229.547485 166.978104,229.116653 159.817322,223.976776 
	C158.009674,224.214661 157.132050,225.768814 155.991165,226.905548 
	C144.073685,238.779892 132.185150,250.683289 120.287338,262.577362 
	C119.462845,263.401611 118.647690,264.236664 117.794441,265.030365 
	C115.922165,266.772034 113.801613,267.828461 111.632164,265.764557 
	C109.358803,263.601837 109.933777,261.228302 111.963188,259.187256 
	C119.126648,251.982712 126.309547,244.797119 133.531067,237.650833 
	C140.146317,231.104523 146.821075,224.618332 153.240143,218.330444 
	C148.348328,213.344315 143.896790,208.806946 138.299393,203.101608 
	C136.174774,205.722763 133.979126,208.652054 131.544647,211.367203 
	C129.492111,213.656372 126.946342,216.042282 123.978668,213.009659 
	C121.215874,210.186401 123.499634,207.782974 125.672646,205.840134 
	C128.399567,203.402023 131.287781,201.144348 134.676407,198.336456 
	C129.346756,192.919922 125.094971,188.573944 120.813248,184.257675 
	C118.622055,182.048782 116.623260,179.817322 118.626129,176.092560 
M271.776489,69.722649 
	C266.104675,63.943966 260.432892,58.165291 254.599136,52.221615 
	C252.564789,54.098953 251.190948,55.281754 249.911896,56.559456 
	C210.436920,95.992897 171.009888,135.474518 131.435440,174.807846 
	C128.035400,178.187180 128.531174,180.195496 131.624252,183.257767 
	C152.453827,203.879837 173.207458,224.579956 193.816086,245.422501 
	C197.009308,248.651993 198.918671,248.772308 202.197083,245.477081 
	C241.675095,205.797043 281.296875,166.260071 320.853119,126.657799 
	C322.094421,125.415062 323.834259,124.439545 324.013794,122.063278 
	C306.841827,104.857552 289.558746,87.540474 271.776489,69.722649 
z"/>
<path fill="#000000" opacity="1.000000" stroke="none" 
	d="
M123.993942,236.997253 
	C121.496048,239.465561 119.290565,241.728607 116.984940,243.884583 
	C115.311050,245.449829 113.373436,245.691467 111.615173,244.084595 
	C109.718559,242.351303 109.536804,240.133026 111.300522,238.335007 
	C118.979553,230.506714 126.745102,222.761719 134.575928,215.085144 
	C136.291306,213.403534 138.523819,213.046951 140.332367,215.039749 
	C142.280579,217.186462 141.586670,219.338974 139.734177,221.208069 
	C134.585800,226.402466 129.409012,231.568726 123.993942,236.997253 
z"/>
<path fill="#000000" opacity="1.000000" stroke="none" 
	d="
M121.483902,221.485596 
	C119.808838,223.129807 118.429749,224.569122 116.942696,225.886597 
	C115.231911,227.402313 113.307762,227.630569 111.577316,226.012283 
	C109.707260,224.263443 109.678017,222.182190 111.314110,220.252594 
	C112.596275,218.740387 114.042969,217.360001 115.484001,215.992081 
	C117.368668,214.203049 119.493759,212.546341 121.989075,214.722244 
	C124.381485,216.808411 123.651054,219.126160 121.483902,221.485596 
z"/>
<path fill="#000000" opacity="1.000000" stroke="none" 
	d="
M149.357544,248.062195 
	C152.987274,248.219727 154.746460,249.880066 153.958054,253.193542 
	C153.158737,256.552795 147.563644,260.159302 145.173157,258.984833 
	C142.616226,257.728607 142.029449,255.560898 143.589905,253.205811 
	C144.959824,251.138260 146.727005,249.350601 149.357544,248.062195 
z"/>
<path fill="#000000" opacity="1.000000" stroke="none" 
	d="
M151.859390,157.932281 
	C179.145981,130.572083 206.211395,103.503960 233.162628,76.322639 
	C236.664825,72.790550 239.435379,71.887726 243.753326,75.372330 
	C250.325500,80.676094 258.603790,80.317825 265.379761,74.876167 
	C268.642731,72.255737 271.116394,72.304970 274.009521,75.246231 
	C283.347107,84.739250 292.762939,94.156006 302.213715,103.536522 
	C304.694244,105.998596 304.667755,108.269333 302.657684,111.009956 
	C296.382996,119.565224 296.308441,126.119385 302.598999,134.650223 
	C304.737518,137.550369 304.384735,139.631393 301.987885,142.023895 
	C273.825958,170.134735 245.683258,198.264954 217.598068,226.452377 
	C214.666428,229.394669 212.323013,229.409744 209.026505,226.807098 
	C201.690643,221.015274 194.112198,221.179520 186.705017,227.116653 
	C183.558792,229.638458 181.215591,229.339630 178.509979,226.595261 
	C169.275772,217.228958 159.982666,207.919342 150.608429,198.693359 
	C147.714096,195.844772 147.421005,193.454224 150.068634,190.100830 
	C155.685043,182.987274 156.035309,175.132248 150.680054,168.597977 
	C147.209885,164.363785 147.409744,161.319504 151.859390,157.932281 
M291.974701,140.422058 
	C293.703400,138.876556 293.983398,137.175690 292.847870,135.081146 
	C288.460327,126.988106 288.659119,118.802277 292.724762,110.679489 
	C293.895905,108.339661 293.407440,106.637413 291.657288,104.900352 
	C285.161224,98.452934 278.708344,91.961815 272.269012,85.457611 
	C270.433136,83.603203 268.639069,82.986259 266.073792,84.331375 
	C258.150269,88.486107 250.077423,88.485672 242.161301,84.309471 
	C239.554916,82.934441 237.903046,83.735008 236.053864,85.588036 
	C211.124756,110.569206 186.180573,135.535507 161.152847,160.417725 
	C158.772720,162.784027 158.401978,164.699310 159.880569,167.803604 
	C163.430725,175.257080 163.537430,183.031113 159.787003,190.437515 
	C158.145462,193.679260 158.998001,195.507996 161.302216,197.732849 
	C167.408691,203.628983 173.425751,209.625107 179.286636,215.764481 
	C181.559341,218.145172 183.455429,218.813873 186.623657,217.217209 
	C193.331329,213.836807 200.709930,213.176559 207.367676,216.497589 
	C212.671402,219.143204 215.331314,217.218094 218.792511,213.727585 
	C242.937363,189.378372 267.239929,165.185562 291.974701,140.422058 
z"/>
<path fill="#000000" opacity="1.000000" stroke="none" 
	d="
M256.659149,130.474365 
	C270.393982,154.607468 259.088013,180.884644 232.769638,186.783768 
	C213.257080,191.157410 193.640732,177.319260 189.952011,156.578552 
	C186.501114,137.175049 201.027130,117.197906 220.297577,114.727081 
	C235.408600,112.789574 247.407944,117.984329 256.659149,130.474365 
M245.218826,171.724060 
	C252.884171,163.962952 256.423157,154.837646 253.509048,144.041458 
	C250.354324,132.353836 242.642395,125.142906 230.637604,123.080795 
	C219.677170,121.198074 210.577118,125.010078 203.818527,133.649368 
	C196.289291,143.273712 195.859467,153.871735 201.433289,164.541336 
	C209.557281,180.092529 231.118744,184.231674 245.218826,171.724060 
z"/>
<path fill="#000000" opacity="1.000000" stroke="none" 
	d="
M215.579865,156.467606 
	C208.645859,149.616684 208.367508,148.107071 212.137085,139.328735 
	C212.624725,138.193146 213.370972,137.123169 214.550095,137.023010 
	C217.257614,136.792999 219.618362,135.859985 221.960693,134.535049 
	C223.515457,133.655594 225.303650,133.963074 226.428253,135.515869 
	C227.895248,137.541458 227.432205,139.576004 226.035370,141.492981 
	C224.260529,143.928726 221.485275,145.634216 219.649231,149.547348 
	C223.786148,148.246002 225.394150,145.636703 227.488861,143.777817 
	C230.085281,141.473709 232.465714,141.365799 234.946365,143.713547 
	C236.996399,145.653748 239.026321,147.619492 240.981781,149.654053 
	C242.906158,151.656296 243.671570,153.881485 241.627899,156.288727 
	C240.597626,157.502289 240.244919,158.856689 240.267471,160.425537 
	C240.311569,163.494431 238.586014,165.005630 235.648682,165.109161 
	C234.095642,165.163895 232.760971,165.526138 231.466217,166.413681 
	C229.491730,167.767181 227.342972,168.084320 225.678253,166.027908 
	C223.831177,163.746231 224.951996,161.763565 226.664627,159.858429 
	C228.568649,157.740387 231.273102,156.199448 232.321899,152.667389 
	C229.091537,152.641830 227.982544,154.952515 226.457581,156.402878 
	C221.504349,161.113861 220.835938,161.185516 215.579865,156.467606 
z"/>
</svg>