<?xml version="1.0" encoding="UTF-8"?>
<svg version="1.1" viewBox="0 0 2048 562" width="546" height="150" xmlns="http://www.w3.org/2000/svg">
<path transform="translate(0)" d="m0 0h2048v562h-2048z" fill="#FEFEFE"/>
<path transform="translate(1358,97)" d="m0 0 95 1 7 15 17 40 14 33 13 30 8 20 9 20 13 31 17 40 8 19 18 42 13 30 10 24 11 27 5 12v2h-64l-3-3-12-27-24-57-14-33-6-14-5 1-23 11-54 25-34 16-60 28-27 12-20 10-7 14-7 16-2 1h-63l-1-2 15-35 18-43 17-39 15-36 12-28 11-26 21-49 13-31 23-54 11-26 6-14 2-2z" fill="#E90F0F"/>
<path transform="translate(628,98)" d="m0 0h100l3 5 7 16 19 45 17 40 12 28 20 47 12 29 13 30 16 38 33 77 11 26v4h-64l-3-3-5-12-27-63-10-24-6-15-6-13-1-4-9 2-17 9-12 5-25 12-28 13-67 31-12 5-16 8-38 18-4 8-9 21-3 2h-64l2-6 12-29 23-53 19-45 17-40 19-45 19-44 11-26 18-42 15-37z" fill="#E90F0F"/>
<path transform="translate(1778,91)" d="m0 0h42l23 2 22 4 25 8 20 9 14 8 11 8 12 11 10 12 9 15 5 12 3 11 1 16-2 2h-59l-2-1-3-10-4-8-8-10-16-11-16-8-16-5-20-4-10-1-26-1-23 2-24 5-20 8-17 10-9 8-7 11-3 6v5l8 5 18 8 15 7 33 16 33 15 30 14 24 11 23 11 26 12 64 30 16 8 1 5-1 35-3 16-5 13-7 12-8 11h-2l-2 4-8 8-10 8-18 11-17 8-20 7-26 6-20 3-9 1h-46l-23-3-19-4-20-6-13-5-19-9-16-11-10-9-8-7-9-12-8-14-5-15-3-16v-5l2-2 18-1 41 1 2 1 5 13 6 9 10 10 17 10 18 7 25 6 17 2h32l21-3 24-6 16-7 17-9 11-11 6-11v-6l-24-11-27-13-29-13-25-12-26-12-18-8-16-8-28-13-22-10-28-13-36-17-9-5-1-1v-31l2-21 5-16 6-12 8-11 9-10 8-8 15-11 18-10 17-7 15-5 22-5 15-2z" fill="#E90F0F"/>
<path transform="translate(78,97)" d="m0 0 53 1 1 222 6-2 31-15 24-11 64-30 26-12 34-16 26-12 24-11 1-112 1-1 15-1 45 1 1 5v332l-1 47-1 1h-58l-1-1-1-21v-177l1-9-6 2-16 7-16 8-19 9-20 9-29 14-33 15-36 17-26 12-30 14-5 3h-2l1 8v38l-1 51-1 1h-58l-1-10v-374z" fill="#E90F0F"/>
<path transform="translate(831,97)" d="m0 0 62 1 5 8 8 20 13 31 5 11 15 36 13 30 13 31 12 28 5 12 14 33 12 28 10 24 12 28 10 23 2 1 10-25 17-40 19-45 11-25 15-36 17-40 30-70 19-45 7-17 2-2h64l-1 7-18 42-16 38-15 35-10 24-12 28-16 38-23 53-8 20-13 30-14 33-13 30-4 8h-98l-5-8-17-40-13-31-10-23-13-31-31-73-12-28-11-26-20-47-16-37-10-24-6-15v-2z" fill="#E90F0F"/>
<path transform="translate(678,137)" d="m0 0 3 3 8 20 22 51 18 43 13 30 3 6v5l-16 8-50 23-38 18-28 13-13 6-20 9-1-4 10-23 15-35 23-54 30-71 17-40z" fill="#FEFEFE"/>
<path transform="translate(1402,137)" d="m0 0 4 4 7 17 11 26 19 45 13 30 13 31v6l-44 20-23 11-28 13-24 11-28 13-17 8h-2l1-5 10-22 12-29 13-30 18-43 13-30 8-19 10-24 12-28z" fill="#FEFEFE"/>
<path transform="translate(78,97)" d="m0 0 52 1v7l-2-3h-7l-4-1h-31l-6 2v3l-5 2v291l-1 73-2-3v-371z" fill="#D60D15"/>
<path transform="translate(369,99)" d="m0 0h59v19h-1l-1-15h-6v-2h-38l-3 2-3 6-4 2v88h-2l-1-53z" fill="#D60D15"/>
<path transform="translate(128,153)" d="m0 0 2 4v29l-1 104-2 1-1-21v-85l1-29z" fill="#D60D16"/>
<path transform="translate(846,379)" d="m0 0 2 4h2l30 70 9 22 1 7-4-1 1-2-1-7h-2l-7-17-6-13-2-7-3-1-3-5v-6l-3-5-5-15-9-21z" fill="#DB0D13"/>
<path transform="translate(1189,97)" d="m0 0h64l-1 7-6 12-2-3 1-3-2-1 3-2 2 1-2-6-25-1h-30l-4 6-3 7h-1l1-8 4-8z" fill="#DF0E12"/>
<path transform="translate(631,242)" d="m0 0 1 4-13 31-3 7-3-1 3-8h-2v-11l3-7 2-4 5-5 3-4 1 1z" fill="#DA0D14"/>
<path transform="translate(1540,307)" d="m0 0 3 4 16 39 6 14-1 3-4-8-4-9-1-7-3-1-1-3-3-1-2-7-7-8-1-5h2l2 5 3 3-3-11-2-4z" fill="#D70D15"/>
<path transform="translate(852,425)" d="m0 0 5 3 1 5 3-4 2 6 3 1 2 4v3h2l1 5-6 2-4-5-2-6-4-6-3-6z" fill="#D60D15"/>
<path transform="translate(1968,338)" d="m0 0 5 1 6 4v31h-2l-1-7v-15h-3v-5h-2z" fill="#D70D15"/>
<path transform="translate(1377,191)" d="m0 0h1l-1 8-17 39-2 5h-2l1-7 7-15-2-1 4-4 1-4h2l2-9 2-1 2-10z" fill="#DC0E13"/>
<path transform="translate(629,99)" d="m0 0h100l3 6 1 8-3-4-3-7-5-1h-93z" fill="#D70D15"/>
<path transform="translate(576,224)" d="m0 0 2 1-2 5-1 5-2 6-2 4h-2l-2 6-5 10h-1l1-8 12-27h2z" fill="#DB0D14"/>
<path transform="translate(1599,445)" d="m0 0 2 3 2 6h2l10 25v3l-8-1 3-9h-2l-1-6-5-1 2-1-1-6-4-9z" fill="#DB0D14"/>
<path transform="translate(370,407)" d="m0 0h1l2 24v24l-1 7h-1l-1-6z" fill="#D60D16"/>
<path transform="translate(1160,169)" d="m0 0 1 4-3 5-1 5-2 3h-2l1 5-3 2-4 8h-2l1-5 10-23z" fill="#DC0E13"/>
<path transform="translate(805,282)" d="m0 0h2l12 28 2 10-2-1-7-16-6-15z" fill="#DC0D13"/>
<path transform="translate(1394,99)" d="m0 0h58l1 3h2l2 4v5l-4-5-1-5-4-1-1 2-7-1-46-1z" fill="#D70D15"/>
<path transform="translate(1473,149)" d="m0 0 1 2h2l12 28 2 5-1 4-6-12-7-18-3-6z" fill="#DE0E13"/>
<path transform="translate(846,379)" d="m0 0 2 4h2l12 28v3l-3-1-4-10-9-21z" fill="#DF0E12"/>
<path transform="translate(1182,262)" d="m0 0 1 4-8 19-2 1-1-3-3 1-1-5 4-1 1-2 2 2 5-14z" fill="#DB0D14"/>
<path transform="translate(925,176)" d="m0 0h2l12 28 1 8-3-4-8-20-4-9z" fill="#DF0E12"/>
<path transform="translate(1149,340)" d="m0 0 1 4-11 26-2 5h-2l1-6 3-10h2l3-9z" fill="#DC0D13"/>
<path transform="translate(1225,162)" d="m0 0 1 3-14 33-2 1 1-7 2-3 2-6 4-9z" fill="#DC0D13"/>
<path transform="translate(1587,454)" d="m0 0h4l1 4h2l2 6-1 3 1 2-8-2-1-3z" fill="#D60D16"/>
<path transform="translate(1189,99)" d="m0 0h39l-1 2h-36l-4 6-3 7h-1l1-8 4-6z" fill="#D80D15"/>
<path transform="translate(1292,241)" d="m0 0h3l-1 4-1 9-3 2-1 6-4 1 2-10z" fill="#DA0D14"/>
<path transform="translate(636,223)" d="m0 0 2 1 1 6-4 9-5-1 1-6 3-6h2z" fill="#E00E12"/>
<path transform="translate(878,451)" d="m0 0 2 2 9 22 1 7-4-1 1-2-1-7h-2l-6-15z" fill="#E10E11"/>
<path transform="translate(1510,236)" d="m0 0h2l9 20v6l-3-4-5-11-3-7z" fill="#DE0E12"/>
<path transform="translate(540,309)" d="m0 0 2 1 1 4-3 1v7l-3 1-1 2h-2v-6l4-9z" fill="#DA0D14"/>
<path transform="translate(1101,305)" d="m0 0 1 4-2 7-3 7-4 1 1-5 5-12h2z" fill="#DB0D14"/>
<path transform="translate(1411,152)" d="m0 0 3 2 8 18v5h-2l-9-21z" fill="#DD0E13"/>
<path transform="translate(577,356)" d="m0 0 1 2h4l-3 9-2 3-1 5h-1v-7h-3v-2l3-2v-5z" fill="#D60D16"/>
<path transform="translate(835,353)" d="m0 0 1 2h2l7 16v6l-3-3-7-17z" fill="#DB0D14"/>
<path transform="translate(952,388)" d="m0 0 2 3 7 14 3 7v4h-2l-9-21z" fill="#DD0E13"/>
<path transform="translate(619,264)" d="m0 0 4 1-1 5-6 14-3-1 3-7 1-7h3z" fill="#E20E11"/>
<path transform="translate(903,125)" d="m0 0 3 1 8 19v5l-2-1-6-14z" fill="#DD0E13"/>
<path transform="translate(970,282)" d="m0 0 1 2h2l6 15 1 1v6l-3-3-7-18z" fill="#DD0E13"/>
<path transform="translate(1128,385)" d="m0 0 3 1-1 5-5 10-3-1h2l-1-5z" fill="#DB0D14"/>
<path transform="translate(951,237)" d="m0 0h2l8 18v6l-2-1-5-13-3-7z" fill="#DB0D14"/>
<path transform="translate(824,327)" d="m0 0 1 2h2l4 9 2 8 1 5-3-2-4-11-3-6z" fill="#DB0D14"/>
<path transform="translate(1524,269)" d="m0 0 2 2 2 7h2l5 11v6l-3-3-8-20z" fill="#DC0D13"/>
<path transform="translate(830,99)" d="m0 0h34v1l-24 1-6 1-1 5-2-3z" fill="#D60D16"/>
<path transform="translate(928,331)" d="m0 0 2 1 8 20v2h-2l-8-18z" fill="#DE0E13"/>
<path transform="translate(1163,307)" d="m0 0 1 4-9 21-2 1 1-6 6-13z" fill="#DC0D13"/>
<path transform="translate(1153,183)" d="m0 0 2 1v2h-2l1 5-3 2-4 8h-2l1-5 4-9h2z" fill="#DB0D14"/>
<path transform="translate(982,311)" d="m0 0 3 1 6 14v6l-2-2-7-16z" fill="#DD0E13"/>
<path transform="translate(741,131)" d="m0 0h2l6 14v6l-3-4-5-12z" fill="#DD0E13"/>
<path transform="translate(1178,125)" d="m0 0 1 4-4 10-3 1 1-7 2-5h2z" fill="#DB0D14"/>
<path transform="translate(1540,307)" d="m0 0 3 4 7 17-1 2-3-3-6-16z" fill="#D60D16"/>
<path transform="translate(1262,312)" d="m0 0h3l-3 11-4 4v-6z" fill="#DB0D14"/>
<path transform="translate(1e3 359)" d="m0 0h2l5 12v5l-2-1-5-13z" fill="#DC0D13"/>
<path transform="translate(370,278)" d="m0 0h1v5h2l1 7h-2l-1 9h-1z" fill="#D60D16"/>
<path transform="translate(1172,287)" d="m0 0 1 3-6 14-2 1 1-6 5-11z" fill="#DC0D13"/>
<path transform="translate(1377,191)" d="m0 0h1l-1 8-4 9-2-1v-4l2-1 2-10z" fill="#DD0E13"/>
<path transform="translate(1182,262)" d="m0 0 1 4-5 12-2-1 3-9 2-5z" fill="#DD0E13"/>
<path transform="translate(1458,113)" d="m0 0h2l5 12v5l-3-4-4-10z" fill="#DE0E13"/>
<path transform="translate(1114,422)" d="m0 0 1 4-5 10h-2l2-8z" fill="#DB0D14"/>
<path transform="translate(932,195)" d="m0 0h2v2h2l4 10v5l-3-4z" fill="#DC0E13"/>
<path transform="translate(599,170)" d="m0 0 1 3-1 7-4 1-1 2 1-7 2-4h2z" fill="#DB0D14"/>
<path transform="translate(894,103)" d="m0 0 5 5 2 6v6l-2-2-5-12z" fill="#DD0E13"/>
<path transform="translate(920,313)" d="m0 0 3 3 4 8v4h-2l-5-11z" fill="#DD0E13"/>
<path transform="translate(805,282)" d="m0 0h2l6 14-1 3-2-7h-2l-3-6z" fill="#E20E11"/>
<path transform="translate(779,222)" d="m0 0 3 4 3 7-1 3-3-1-2-9z" fill="#D60D16"/>
<path transform="translate(1355,221)" d="m0 0h4v2h-2l-1 2-2 6-3 3v-6z" fill="#D60D16"/>
<path transform="translate(882,466)" d="m0 0h2l1 4h2l3 10v2l-4-1 1-2-1-7h-2z" fill="#DA0D14"/>
<path transform="translate(1131,234)" d="m0 0 1 3-1 6-3 1v2h-2l1-6 2-4h2z" fill="#DC0D13"/>
<path transform="translate(1124,248)" d="m0 0 3 1-1 5-3 6-3 3 1-4z" fill="#D80D15"/>
<path transform="translate(607,151)" d="m0 0 1 3-3 10h-3l1-6 2-5h2z" fill="#DC0E13"/>
<path transform="translate(1503,220)" d="m0 0 1 2h2l3 6v6l-3-3-3-8z" fill="#DC0D13"/>
<path transform="translate(1215,425)" d="m0 0h2l-2 6-4 9-1-2 2-9 1-2h2z" fill="#DB0D13"/>
<path transform="translate(846,379)" d="m0 0 2 4h2l3 10-1 2-6-13z" fill="#DB0D14"/>
<path transform="translate(1234,139)" d="m0 0h1l-1 7-4 8-1-2 1-5 1-2h2l-1-4z" fill="#DB0D14"/>
<path transform="translate(835,353)" d="m0 0 1 2h2l4 9-1 3-1-4-3-1-2-5z" fill="#E00E12"/>
<path transform="translate(619,272)" d="m0 0 1 3-4 9-3-1 3-7z" fill="#DE0E12"/>
<path transform="translate(1442,223)" d="m0 0 2 2 4 10v3h-2l-4-9z" fill="#DD0E13"/>
<path transform="translate(1972,395)" d="m0 0 2 1v2h-2v2l3-1-2 4-5-1 2-5z" fill="#D80D15"/>
<path transform="translate(951,237)" d="m0 0h2l5 11-1 3-1-4h-2l-3-7z" fill="#E10E12"/>
<path transform="translate(1406,139)" d="m0 0 2 1 3 7v4h-2l-3-7z" fill="#DD0E13"/>
<path transform="translate(1599,445)" d="m0 0 2 3 2 6h2l1 5-3-1-4-9z" fill="#DA0D14"/>
<path transform="translate(944,223)" d="m0 0h3l3 6v6l-2-2z" fill="#DD0E13"/>
</svg>
